%TF.GenerationSoftware,KiCad,Pcbnew,(7.0.0)*%
%TF.CreationDate,2023-02-21T01:36:48-05:00*%
%TF.ProjectId,Desk Panel,4465736b-2050-4616-9e65-6c2e6b696361,rev?*%
%TF.SameCoordinates,Original*%
%TF.FileFunction,Copper,L2,Bot*%
%TF.FilePolarity,Positive*%
%FSLAX46Y46*%
G04 Gerber Fmt 4.6, Leading zero omitted, Abs format (unit mm)*
G04 Created by KiCad (PCBNEW (7.0.0)) date 2023-02-21 01:36:48*
%MOMM*%
%LPD*%
G01*
G04 APERTURE LIST*
G04 Aperture macros list*
%AMRoundRect*
0 Rectangle with rounded corners*
0 $1 Rounding radius*
0 $2 $3 $4 $5 $6 $7 $8 $9 X,Y pos of 4 corners*
0 Add a 4 corners polygon primitive as box body*
4,1,4,$2,$3,$4,$5,$6,$7,$8,$9,$2,$3,0*
0 Add four circle primitives for the rounded corners*
1,1,$1+$1,$2,$3*
1,1,$1+$1,$4,$5*
1,1,$1+$1,$6,$7*
1,1,$1+$1,$8,$9*
0 Add four rect primitives between the rounded corners*
20,1,$1+$1,$2,$3,$4,$5,0*
20,1,$1+$1,$4,$5,$6,$7,0*
20,1,$1+$1,$6,$7,$8,$9,0*
20,1,$1+$1,$8,$9,$2,$3,0*%
G04 Aperture macros list end*
%TA.AperFunction,ComponentPad*%
%ADD10RoundRect,0.200000X-0.200000X-0.450000X0.200000X-0.450000X0.200000X0.450000X-0.200000X0.450000X0*%
%TD*%
%TA.AperFunction,ComponentPad*%
%ADD11O,0.800000X1.300000*%
%TD*%
%TA.AperFunction,ComponentPad*%
%ADD12C,3.600000*%
%TD*%
%TA.AperFunction,ConnectorPad*%
%ADD13C,5.600000*%
%TD*%
%TA.AperFunction,ComponentPad*%
%ADD14C,2.200000*%
%TD*%
%TA.AperFunction,SMDPad,CuDef*%
%ADD15RoundRect,0.250000X-0.312500X-0.625000X0.312500X-0.625000X0.312500X0.625000X-0.312500X0.625000X0*%
%TD*%
%TA.AperFunction,Conductor*%
%ADD16C,0.250000*%
%TD*%
G04 APERTURE END LIST*
D10*
%TO.P,Molex2,1,Pin_1*%
%TO.N,+3V3*%
X142800000Y-97350000D03*
D11*
%TO.P,Molex2,2,Pin_2*%
%TO.N,UP*%
X144049999Y-97349999D03*
%TO.P,Molex2,3,Pin_3*%
%TO.N,DOWN*%
X145299999Y-97349999D03*
%TO.P,Molex2,4,Pin_4*%
%TO.N,GND*%
X146549999Y-97349999D03*
%TD*%
D12*
%TO.P,REF\u002A\u002A,1*%
%TO.N,N/C*%
X122400000Y-106150000D03*
D13*
X122400000Y-106150000D03*
%TD*%
D14*
%TO.P,DOWN,1,1*%
%TO.N,DOWN*%
X156740000Y-94470000D03*
%TO.P,DOWN,2,2*%
%TO.N,GND*%
X150390000Y-97010000D03*
%TD*%
D12*
%TO.P,,1*%
%TO.N,N/C*%
X122400000Y-106150000D03*
%TD*%
%TO.P,REF\u002A\u002A,1*%
%TO.N,N/C*%
X166900000Y-92950000D03*
D13*
X166900000Y-92950000D03*
%TD*%
D12*
%TO.P,REF\u002A\u002A,1*%
%TO.N,N/C*%
X122400000Y-92950000D03*
D13*
X122400000Y-92950000D03*
%TD*%
D14*
%TO.P,UP,1,1*%
%TO.N,UP*%
X137660000Y-94470000D03*
%TO.P,UP,2,2*%
%TO.N,GND*%
X131310000Y-97010000D03*
%TD*%
D12*
%TO.P,REF\u002A\u002A,1*%
%TO.N,N/C*%
X166900000Y-106150000D03*
D13*
X166900000Y-106150000D03*
%TD*%
D12*
%TO.P,,1*%
%TO.N,N/C*%
X166900000Y-92950000D03*
%TD*%
%TO.P,,1*%
%TO.N,N/C*%
X166900000Y-106150000D03*
%TD*%
D15*
%TO.P,R4,1*%
%TO.N,+3V3*%
X152737500Y-103950000D03*
%TO.P,R4,2*%
%TO.N,DOWN*%
X155662500Y-103950000D03*
%TD*%
%TO.P,R3,1*%
%TO.N,+3V3*%
X133675000Y-103950000D03*
%TO.P,R3,2*%
%TO.N,UP*%
X136600000Y-103950000D03*
%TD*%
D16*
%TO.N,UP*%
X144050000Y-96450000D02*
X144050000Y-97350000D01*
X142070000Y-94470000D02*
X144050000Y-96450000D01*
X137660000Y-94470000D02*
X142070000Y-94470000D01*
%TO.N,DOWN*%
X145300000Y-96400000D02*
X145300000Y-97350000D01*
X156740000Y-94470000D02*
X147230000Y-94470000D01*
X147230000Y-94470000D02*
X145300000Y-96400000D01*
%TO.N,+3V3*%
X139100000Y-105700000D02*
X142800000Y-102000000D01*
X134400000Y-105700000D02*
X139100000Y-105700000D01*
X133675000Y-104975000D02*
X134400000Y-105700000D01*
X133675000Y-103950000D02*
X133675000Y-104975000D01*
X142800000Y-102000000D02*
X142800000Y-101500000D01*
X152737500Y-103950000D02*
X144750000Y-103950000D01*
X144750000Y-103950000D02*
X142800000Y-102000000D01*
X142800000Y-101500000D02*
X142800000Y-97350000D01*
%TO.N,DOWN*%
X156740000Y-102872500D02*
X155662500Y-103950000D01*
X156740000Y-94470000D02*
X156740000Y-102872500D01*
%TO.N,UP*%
X137660000Y-102890000D02*
X136600000Y-103950000D01*
X137660000Y-94470000D02*
X137660000Y-102890000D01*
%TD*%
M02*
