M48
; DRILL file {KiCad (7.0.0)} date Tue Feb 21 01:36:52 2023
; FORMAT={-:-/ absolute / inch / decimal}
; #@! TF.CreationDate,2023-02-21T01:36:52-05:00
; #@! TF.GenerationSoftware,Kicad,Pcbnew,(7.0.0)
; #@! TF.FileFunction,MixedPlating,1,2
FMAT,2
INCH
; #@! TA.AperFunction,Plated,PTH,ComponentDrill
T1C0.0197
; #@! TA.AperFunction,Plated,PTH,ComponentDrill
T2C0.0591
; #@! TA.AperFunction,Plated,PTH,ComponentDrill
T3C0.1260
; #@! TA.AperFunction,NonPlated,NPTH,ComponentDrill
T4C0.0669
; #@! TA.AperFunction,NonPlated,NPTH,ComponentDrill
T5C0.1575
%
G90
G05
T1
X5.622Y-3.8327
X5.6713Y-3.8327
X5.7205Y-3.8327
X5.7697Y-3.8327
T2
X5.1697Y-3.8193
X5.4197Y-3.7193
X5.9209Y-3.8193
X6.1709Y-3.7193
T3
X4.8189Y-3.6594
X4.8189Y-4.1791
X4.8189Y-4.1791
X6.5709Y-3.6594
X6.5709Y-3.6594
X6.5709Y-4.1791
X6.5709Y-4.1791
T4
X5.1197Y-3.9193
X5.5197Y-3.9193
X5.8709Y-3.9193
X6.2709Y-3.9193
T5
X5.3197Y-3.9193
X6.0709Y-3.9193
T0
M30
