M48
; DRILL file {KiCad (7.0.0)} date Tue Mar  7 20:41:24 2023
; FORMAT={-:-/ absolute / inch / decimal}
; #@! TF.CreationDate,2023-03-07T20:41:24-05:00
; #@! TF.GenerationSoftware,Kicad,Pcbnew,(7.0.0)
; #@! TF.FileFunction,MixedPlating,1,2
FMAT,2
INCH
; #@! TA.AperFunction,Plated,PTH,ViaDrill
T1C0.0118
; #@! TA.AperFunction,Plated,PTH,ComponentDrill
T2C0.0118
; #@! TA.AperFunction,Plated,PTH,ViaDrill
T3C0.0236
; #@! TA.AperFunction,Plated,PTH,ViaDrill
T4C0.0394
; #@! TA.AperFunction,Plated,PTH,ComponentDrill
T5C0.0400
; #@! TA.AperFunction,Plated,PTH,ComponentDrill
T6C0.0402
; #@! TA.AperFunction,Plated,PTH,ComponentDrill
T7C0.0866
; #@! TA.AperFunction,NonPlated,NPTH,ComponentDrill
T8C0.1181
%
G90
G05
T1
X5.12Y-2.4797
X5.18Y-2.66
X6.0Y-3.42
T2
X5.2874Y-2.5293
X5.9659Y-3.1478
X5.9659Y-3.1871
X6.0053Y-3.1478
X6.0053Y-3.1871
X6.0447Y-3.1478
X6.0447Y-3.1871
X6.0841Y-3.1478
X6.0841Y-3.1871
T3
X6.25Y-3.22
T4
X5.83Y-2.49
T5
X6.4219Y-2.79
X6.4219Y-2.9081
X6.4219Y-3.0262
X6.54Y-2.79
X6.54Y-2.9081
X6.54Y-3.0262
T6
X5.07Y-2.6619
X5.07Y-2.78
X5.07Y-3.04
X5.07Y-3.1581
X6.4217Y-2.5748
X6.422Y-3.2417
X6.5398Y-2.5748
X6.5402Y-3.2417
T7
X4.874Y-3.436
X4.876Y-2.38
X6.736Y-2.38
X6.736Y-3.436
T8
X4.9007Y-2.7209
X4.9007Y-3.0991
X6.4807Y-2.4055
X6.4811Y-3.411
X6.7093Y-2.9081
T0
M30
