%TF.GenerationSoftware,KiCad,Pcbnew,(7.0.0)*%
%TF.CreationDate,2023-03-07T20:41:21-05:00*%
%TF.ProjectId,Power Distribution Board,506f7765-7220-4446-9973-747269627574,rev?*%
%TF.SameCoordinates,Original*%
%TF.FileFunction,Legend,Bot*%
%TF.FilePolarity,Positive*%
%FSLAX46Y46*%
G04 Gerber Fmt 4.6, Leading zero omitted, Abs format (unit mm)*
G04 Created by KiCad (PCBNEW (7.0.0)) date 2023-03-07 20:41:21*
%MOMM*%
%LPD*%
G01*
G04 APERTURE LIST*
G04 APERTURE END LIST*
%TO.C,G\u002A\u002A\u002A*%
G36*
X165667135Y-84254234D02*
G01*
X165667135Y-89442424D01*
X162544386Y-89442424D01*
X159421637Y-89442424D01*
X159421637Y-88397409D01*
X159421637Y-87352395D01*
X161487077Y-87352395D01*
X163552518Y-87352395D01*
X163552518Y-83209220D01*
X163552518Y-79066045D01*
X164609826Y-79066045D01*
X165667135Y-79066045D01*
X165667135Y-84254234D01*
G37*
G36*
X135546128Y-80111059D02*
G01*
X135546128Y-81156074D01*
X134501114Y-81156074D01*
X133456099Y-81156074D01*
X133456099Y-85299249D01*
X133456099Y-89442424D01*
X132411085Y-89442424D01*
X131366070Y-89442424D01*
X131366070Y-85299249D01*
X131366070Y-81156074D01*
X130333350Y-81156074D01*
X129300630Y-81156074D01*
X129300630Y-80111059D01*
X129300630Y-79066045D01*
X132423379Y-79066045D01*
X135546128Y-79066045D01*
X135546128Y-80111059D01*
G37*
G36*
X172920765Y-84254234D02*
G01*
X172920765Y-89442424D01*
X169797749Y-89442424D01*
X166674733Y-89442424D01*
X166681147Y-88403557D01*
X166687561Y-87364689D01*
X168759149Y-87358402D01*
X170830736Y-87352116D01*
X170830736Y-86331829D01*
X170830736Y-85311543D01*
X168753002Y-85311543D01*
X166675267Y-85311543D01*
X166675267Y-84254234D01*
X166675267Y-83196925D01*
X168753002Y-83196925D01*
X170830736Y-83196925D01*
X170830736Y-82176499D01*
X170830736Y-81156074D01*
X168753002Y-81156074D01*
X166675267Y-81156074D01*
X166675267Y-80111059D01*
X166675267Y-79066045D01*
X169798016Y-79066045D01*
X172920765Y-79066045D01*
X172920765Y-84254234D01*
G37*
G36*
X158388916Y-84254234D02*
G01*
X158388916Y-89442424D01*
X155265900Y-89442424D01*
X152142884Y-89442424D01*
X152149298Y-88403557D01*
X152155712Y-87364689D01*
X154227300Y-87358402D01*
X156298887Y-87352116D01*
X156298887Y-86319535D01*
X156298887Y-85286954D01*
X154221153Y-85286954D01*
X152143418Y-85286954D01*
X152143418Y-84254234D01*
X152143418Y-83221514D01*
X154221153Y-83221514D01*
X156298887Y-83221514D01*
X156298887Y-82188794D01*
X156298887Y-81156074D01*
X154221153Y-81156074D01*
X152143418Y-81156074D01*
X152143418Y-80111059D01*
X152143418Y-79066045D01*
X155266167Y-79066045D01*
X158388916Y-79066045D01*
X158388916Y-84254234D01*
G37*
G36*
X128267910Y-84254234D02*
G01*
X128267910Y-89442424D01*
X125144893Y-89442424D01*
X122021877Y-89442424D01*
X122028291Y-88403557D01*
X122034705Y-87364689D01*
X124106294Y-87364689D01*
X126177883Y-87364689D01*
X126177882Y-86325822D01*
X126177881Y-85286954D01*
X124100146Y-85286954D01*
X122022411Y-85286954D01*
X122022411Y-84254234D01*
X122022411Y-83221514D01*
X124100146Y-83221514D01*
X126177881Y-83221514D01*
X126177881Y-82188794D01*
X126177881Y-81156074D01*
X124100146Y-81156074D01*
X122022411Y-81156074D01*
X122022411Y-80111059D01*
X122022411Y-79066045D01*
X125145160Y-79066045D01*
X128267910Y-79066045D01*
X128267910Y-84254234D01*
G37*
G36*
X139711539Y-79108386D02*
G01*
X139740947Y-79166297D01*
X139790632Y-79264730D01*
X139859622Y-79401745D01*
X139946943Y-79575403D01*
X140051622Y-79783765D01*
X140172688Y-80024890D01*
X140309166Y-80296840D01*
X140460084Y-80597675D01*
X140624470Y-80925454D01*
X140801350Y-81278239D01*
X140989751Y-81654091D01*
X141188702Y-82051069D01*
X141397228Y-82467233D01*
X141614357Y-82900645D01*
X141839117Y-83349365D01*
X142070535Y-83811453D01*
X142307637Y-84284970D01*
X144889896Y-89442424D01*
X139689346Y-89442424D01*
X134488796Y-89442424D01*
X137085009Y-84250044D01*
X137202199Y-84015699D01*
X137502815Y-83414871D01*
X137782184Y-82857006D01*
X138040719Y-82341291D01*
X138278831Y-81866915D01*
X138496932Y-81433067D01*
X138695435Y-81038934D01*
X138874752Y-80683705D01*
X139035293Y-80366569D01*
X139177472Y-80086713D01*
X139301701Y-79843327D01*
X139408392Y-79635599D01*
X139497955Y-79462717D01*
X139570805Y-79323869D01*
X139627352Y-79218244D01*
X139668009Y-79145030D01*
X139693187Y-79103416D01*
X139703300Y-79092590D01*
X139711539Y-79108386D01*
G37*
G36*
X146363127Y-79066093D02*
G01*
X146853043Y-79066264D01*
X147327776Y-79066551D01*
X147785059Y-79066950D01*
X148222627Y-79067454D01*
X148638213Y-79068057D01*
X149029551Y-79068754D01*
X149394374Y-79069538D01*
X149730417Y-79070403D01*
X150035412Y-79071345D01*
X150307095Y-79072356D01*
X150543197Y-79073431D01*
X150741454Y-79074564D01*
X150899599Y-79075749D01*
X151015365Y-79076980D01*
X151086487Y-79078251D01*
X151110698Y-79079557D01*
X151108821Y-79083961D01*
X151089209Y-79124664D01*
X151049217Y-79206008D01*
X150990019Y-79325643D01*
X150912789Y-79481222D01*
X150818704Y-79670398D01*
X150708938Y-79890820D01*
X150584667Y-80140143D01*
X150447064Y-80416018D01*
X150297306Y-80716097D01*
X150136568Y-81038031D01*
X149966024Y-81379474D01*
X149786849Y-81738076D01*
X149600220Y-82111491D01*
X149407309Y-82497369D01*
X149209294Y-82893364D01*
X149007348Y-83297126D01*
X148802648Y-83706309D01*
X148596367Y-84118564D01*
X148389681Y-84531543D01*
X148183765Y-84942898D01*
X147979794Y-85350281D01*
X147778943Y-85751344D01*
X147582388Y-86143739D01*
X147391303Y-86525119D01*
X147206863Y-86893135D01*
X147030243Y-87245439D01*
X146862619Y-87579683D01*
X146705165Y-87893520D01*
X146559057Y-88184600D01*
X146425470Y-88450577D01*
X146305578Y-88689103D01*
X146200557Y-88897828D01*
X146111582Y-89074406D01*
X146039827Y-89216489D01*
X145986469Y-89321728D01*
X145952681Y-89387775D01*
X145939639Y-89412282D01*
X145927003Y-89426848D01*
X145909889Y-89436871D01*
X145906558Y-89430792D01*
X145883986Y-89386794D01*
X145841223Y-89302345D01*
X145779442Y-89179792D01*
X145699815Y-89021479D01*
X145603515Y-88829751D01*
X145491713Y-88606953D01*
X145365583Y-88355431D01*
X145226297Y-88077529D01*
X145075028Y-87775593D01*
X144912947Y-87451967D01*
X144741227Y-87108998D01*
X144561041Y-86749029D01*
X144373560Y-86374406D01*
X144179959Y-85987474D01*
X143981408Y-85590579D01*
X143779081Y-85186064D01*
X143574149Y-84776276D01*
X143367786Y-84363560D01*
X143161163Y-83950260D01*
X142955453Y-83538721D01*
X142751829Y-83131289D01*
X142551463Y-82730309D01*
X142355527Y-82338126D01*
X142165195Y-81957085D01*
X141981637Y-81589531D01*
X141806027Y-81237809D01*
X141639537Y-80904264D01*
X141483340Y-80591242D01*
X141338608Y-80301087D01*
X141206513Y-80036144D01*
X141088229Y-79798760D01*
X140984926Y-79591278D01*
X140897778Y-79416043D01*
X140827958Y-79275402D01*
X140776637Y-79171698D01*
X140744988Y-79107278D01*
X140734184Y-79084486D01*
X140752871Y-79082920D01*
X140818379Y-79081178D01*
X140928809Y-79079491D01*
X141081895Y-79077866D01*
X141275371Y-79076310D01*
X141506969Y-79074833D01*
X141774425Y-79073442D01*
X142075471Y-79072145D01*
X142407841Y-79070951D01*
X142769268Y-79069867D01*
X143157487Y-79068901D01*
X143570232Y-79068062D01*
X144005235Y-79067357D01*
X144460230Y-79066795D01*
X144932952Y-79066383D01*
X145421133Y-79066131D01*
X145922508Y-79066045D01*
X146363127Y-79066093D01*
G37*
G36*
X165667135Y-73713234D02*
G01*
X165667135Y-78901424D01*
X162544386Y-78901424D01*
X159421637Y-78901424D01*
X159421637Y-77856409D01*
X159421637Y-76811395D01*
X161487077Y-76811395D01*
X163552518Y-76811395D01*
X163552518Y-72668220D01*
X163552518Y-68525045D01*
X164609826Y-68525045D01*
X165667135Y-68525045D01*
X165667135Y-73713234D01*
G37*
G36*
X135546128Y-69570059D02*
G01*
X135546128Y-70615074D01*
X134501114Y-70615074D01*
X133456099Y-70615074D01*
X133456099Y-74758249D01*
X133456099Y-78901424D01*
X132411085Y-78901424D01*
X131366070Y-78901424D01*
X131366070Y-74758249D01*
X131366070Y-70615074D01*
X130333350Y-70615074D01*
X129300630Y-70615074D01*
X129300630Y-69570059D01*
X129300630Y-68525045D01*
X132423379Y-68525045D01*
X135546128Y-68525045D01*
X135546128Y-69570059D01*
G37*
G36*
X172920765Y-73713234D02*
G01*
X172920765Y-78901424D01*
X169797749Y-78901424D01*
X166674733Y-78901424D01*
X166681147Y-77862557D01*
X166687561Y-76823689D01*
X168759149Y-76817402D01*
X170830736Y-76811116D01*
X170830736Y-75790829D01*
X170830736Y-74770543D01*
X168753002Y-74770543D01*
X166675267Y-74770543D01*
X166675267Y-73713234D01*
X166675267Y-72655925D01*
X168753002Y-72655925D01*
X170830736Y-72655925D01*
X170830736Y-71635499D01*
X170830736Y-70615074D01*
X168753002Y-70615074D01*
X166675267Y-70615074D01*
X166675267Y-69570059D01*
X166675267Y-68525045D01*
X169798016Y-68525045D01*
X172920765Y-68525045D01*
X172920765Y-73713234D01*
G37*
G36*
X158388916Y-73713234D02*
G01*
X158388916Y-78901424D01*
X155265900Y-78901424D01*
X152142884Y-78901424D01*
X152149298Y-77862557D01*
X152155712Y-76823689D01*
X154227300Y-76817402D01*
X156298887Y-76811116D01*
X156298887Y-75778535D01*
X156298887Y-74745954D01*
X154221153Y-74745954D01*
X152143418Y-74745954D01*
X152143418Y-73713234D01*
X152143418Y-72680514D01*
X154221153Y-72680514D01*
X156298887Y-72680514D01*
X156298887Y-71647794D01*
X156298887Y-70615074D01*
X154221153Y-70615074D01*
X152143418Y-70615074D01*
X152143418Y-69570059D01*
X152143418Y-68525045D01*
X155266167Y-68525045D01*
X158388916Y-68525045D01*
X158388916Y-73713234D01*
G37*
G36*
X128267910Y-73713234D02*
G01*
X128267910Y-78901424D01*
X125144893Y-78901424D01*
X122021877Y-78901424D01*
X122028291Y-77862557D01*
X122034705Y-76823689D01*
X124106294Y-76823689D01*
X126177883Y-76823689D01*
X126177882Y-75784822D01*
X126177881Y-74745954D01*
X124100146Y-74745954D01*
X122022411Y-74745954D01*
X122022411Y-73713234D01*
X122022411Y-72680514D01*
X124100146Y-72680514D01*
X126177881Y-72680514D01*
X126177881Y-71647794D01*
X126177881Y-70615074D01*
X124100146Y-70615074D01*
X122022411Y-70615074D01*
X122022411Y-69570059D01*
X122022411Y-68525045D01*
X125145160Y-68525045D01*
X128267910Y-68525045D01*
X128267910Y-73713234D01*
G37*
G36*
X139711539Y-68567386D02*
G01*
X139740947Y-68625297D01*
X139790632Y-68723730D01*
X139859622Y-68860745D01*
X139946943Y-69034403D01*
X140051622Y-69242765D01*
X140172688Y-69483890D01*
X140309166Y-69755840D01*
X140460084Y-70056675D01*
X140624470Y-70384454D01*
X140801350Y-70737239D01*
X140989751Y-71113091D01*
X141188702Y-71510069D01*
X141397228Y-71926233D01*
X141614357Y-72359645D01*
X141839117Y-72808365D01*
X142070535Y-73270453D01*
X142307637Y-73743970D01*
X144889896Y-78901424D01*
X139689346Y-78901424D01*
X134488796Y-78901424D01*
X137085009Y-73709044D01*
X137202199Y-73474699D01*
X137502815Y-72873871D01*
X137782184Y-72316006D01*
X138040719Y-71800291D01*
X138278831Y-71325915D01*
X138496932Y-70892067D01*
X138695435Y-70497934D01*
X138874752Y-70142705D01*
X139035293Y-69825569D01*
X139177472Y-69545713D01*
X139301701Y-69302327D01*
X139408392Y-69094599D01*
X139497955Y-68921717D01*
X139570805Y-68782869D01*
X139627352Y-68677244D01*
X139668009Y-68604030D01*
X139693187Y-68562416D01*
X139703300Y-68551590D01*
X139711539Y-68567386D01*
G37*
G36*
X146363127Y-68525093D02*
G01*
X146853043Y-68525264D01*
X147327776Y-68525551D01*
X147785059Y-68525950D01*
X148222627Y-68526454D01*
X148638213Y-68527057D01*
X149029551Y-68527754D01*
X149394374Y-68528538D01*
X149730417Y-68529403D01*
X150035412Y-68530345D01*
X150307095Y-68531356D01*
X150543197Y-68532431D01*
X150741454Y-68533564D01*
X150899599Y-68534749D01*
X151015365Y-68535980D01*
X151086487Y-68537251D01*
X151110698Y-68538557D01*
X151108821Y-68542961D01*
X151089209Y-68583664D01*
X151049217Y-68665008D01*
X150990019Y-68784643D01*
X150912789Y-68940222D01*
X150818704Y-69129398D01*
X150708938Y-69349820D01*
X150584667Y-69599143D01*
X150447064Y-69875018D01*
X150297306Y-70175097D01*
X150136568Y-70497031D01*
X149966024Y-70838474D01*
X149786849Y-71197076D01*
X149600220Y-71570491D01*
X149407309Y-71956369D01*
X149209294Y-72352364D01*
X149007348Y-72756126D01*
X148802648Y-73165309D01*
X148596367Y-73577564D01*
X148389681Y-73990543D01*
X148183765Y-74401898D01*
X147979794Y-74809281D01*
X147778943Y-75210344D01*
X147582388Y-75602739D01*
X147391303Y-75984119D01*
X147206863Y-76352135D01*
X147030243Y-76704439D01*
X146862619Y-77038683D01*
X146705165Y-77352520D01*
X146559057Y-77643600D01*
X146425470Y-77909577D01*
X146305578Y-78148103D01*
X146200557Y-78356828D01*
X146111582Y-78533406D01*
X146039827Y-78675489D01*
X145986469Y-78780728D01*
X145952681Y-78846775D01*
X145939639Y-78871282D01*
X145927003Y-78885848D01*
X145909889Y-78895871D01*
X145906558Y-78889792D01*
X145883986Y-78845794D01*
X145841223Y-78761345D01*
X145779442Y-78638792D01*
X145699815Y-78480479D01*
X145603515Y-78288751D01*
X145491713Y-78065953D01*
X145365583Y-77814431D01*
X145226297Y-77536529D01*
X145075028Y-77234593D01*
X144912947Y-76910967D01*
X144741227Y-76567998D01*
X144561041Y-76208029D01*
X144373560Y-75833406D01*
X144179959Y-75446474D01*
X143981408Y-75049579D01*
X143779081Y-74645064D01*
X143574149Y-74235276D01*
X143367786Y-73822560D01*
X143161163Y-73409260D01*
X142955453Y-72997721D01*
X142751829Y-72590289D01*
X142551463Y-72189309D01*
X142355527Y-71797126D01*
X142165195Y-71416085D01*
X141981637Y-71048531D01*
X141806027Y-70696809D01*
X141639537Y-70363264D01*
X141483340Y-70050242D01*
X141338608Y-69760087D01*
X141206513Y-69495144D01*
X141088229Y-69257760D01*
X140984926Y-69050278D01*
X140897778Y-68875043D01*
X140827958Y-68734402D01*
X140776637Y-68630698D01*
X140744988Y-68566278D01*
X140734184Y-68543486D01*
X140752871Y-68541920D01*
X140818379Y-68540178D01*
X140928809Y-68538491D01*
X141081895Y-68536866D01*
X141275371Y-68535310D01*
X141506969Y-68533833D01*
X141774425Y-68532442D01*
X142075471Y-68531145D01*
X142407841Y-68529951D01*
X142769268Y-68528867D01*
X143157487Y-68527901D01*
X143570232Y-68527062D01*
X144005235Y-68526357D01*
X144460230Y-68525795D01*
X144932952Y-68525383D01*
X145421133Y-68525131D01*
X145922508Y-68525045D01*
X146363127Y-68525093D01*
G37*
G36*
X172920765Y-63299234D02*
G01*
X172920765Y-68487424D01*
X169797749Y-68487424D01*
X166674733Y-68487424D01*
X166681147Y-67448557D01*
X166687561Y-66409689D01*
X168759149Y-66403402D01*
X170830736Y-66397116D01*
X170830736Y-65376829D01*
X170830736Y-64356543D01*
X168753002Y-64356543D01*
X166675267Y-64356543D01*
X166675267Y-63299234D01*
X166675267Y-62241925D01*
X168753002Y-62241925D01*
X170830736Y-62241925D01*
X170830736Y-61221499D01*
X170830736Y-60201074D01*
X168753002Y-60201074D01*
X166675267Y-60201074D01*
X166675267Y-59156059D01*
X166675267Y-58111045D01*
X169798016Y-58111045D01*
X172920765Y-58111045D01*
X172920765Y-63299234D01*
G37*
G36*
X165667135Y-63299234D02*
G01*
X165667135Y-68487424D01*
X162544386Y-68487424D01*
X159421637Y-68487424D01*
X159421637Y-67442409D01*
X159421637Y-66397395D01*
X161487077Y-66397395D01*
X163552518Y-66397395D01*
X163552518Y-62254220D01*
X163552518Y-58111045D01*
X164609826Y-58111045D01*
X165667135Y-58111045D01*
X165667135Y-63299234D01*
G37*
G36*
X158388916Y-63299234D02*
G01*
X158388916Y-68487424D01*
X155265900Y-68487424D01*
X152142884Y-68487424D01*
X152149298Y-67448557D01*
X152155712Y-66409689D01*
X154227300Y-66403402D01*
X156298887Y-66397116D01*
X156298887Y-65364535D01*
X156298887Y-64331954D01*
X154221153Y-64331954D01*
X152143418Y-64331954D01*
X152143418Y-63299234D01*
X152143418Y-62266514D01*
X154221153Y-62266514D01*
X156298887Y-62266514D01*
X156298887Y-61233794D01*
X156298887Y-60201074D01*
X154221153Y-60201074D01*
X152143418Y-60201074D01*
X152143418Y-59156059D01*
X152143418Y-58111045D01*
X155266167Y-58111045D01*
X158388916Y-58111045D01*
X158388916Y-63299234D01*
G37*
G36*
X146363127Y-58111093D02*
G01*
X146853043Y-58111264D01*
X147327776Y-58111551D01*
X147785059Y-58111950D01*
X148222627Y-58112454D01*
X148638213Y-58113057D01*
X149029551Y-58113754D01*
X149394374Y-58114538D01*
X149730417Y-58115403D01*
X150035412Y-58116345D01*
X150307095Y-58117356D01*
X150543197Y-58118431D01*
X150741454Y-58119564D01*
X150899599Y-58120749D01*
X151015365Y-58121980D01*
X151086487Y-58123251D01*
X151110698Y-58124557D01*
X151108821Y-58128961D01*
X151089209Y-58169664D01*
X151049217Y-58251008D01*
X150990019Y-58370643D01*
X150912789Y-58526222D01*
X150818704Y-58715398D01*
X150708938Y-58935820D01*
X150584667Y-59185143D01*
X150447064Y-59461018D01*
X150297306Y-59761097D01*
X150136568Y-60083031D01*
X149966024Y-60424474D01*
X149786849Y-60783076D01*
X149600220Y-61156491D01*
X149407309Y-61542369D01*
X149209294Y-61938364D01*
X149007348Y-62342126D01*
X148802648Y-62751309D01*
X148596367Y-63163564D01*
X148389681Y-63576543D01*
X148183765Y-63987898D01*
X147979794Y-64395281D01*
X147778943Y-64796344D01*
X147582388Y-65188739D01*
X147391303Y-65570119D01*
X147206863Y-65938135D01*
X147030243Y-66290439D01*
X146862619Y-66624683D01*
X146705165Y-66938520D01*
X146559057Y-67229600D01*
X146425470Y-67495577D01*
X146305578Y-67734103D01*
X146200557Y-67942828D01*
X146111582Y-68119406D01*
X146039827Y-68261489D01*
X145986469Y-68366728D01*
X145952681Y-68432775D01*
X145939639Y-68457282D01*
X145927003Y-68471848D01*
X145909889Y-68481871D01*
X145906558Y-68475792D01*
X145883986Y-68431794D01*
X145841223Y-68347345D01*
X145779442Y-68224792D01*
X145699815Y-68066479D01*
X145603515Y-67874751D01*
X145491713Y-67651953D01*
X145365583Y-67400431D01*
X145226297Y-67122529D01*
X145075028Y-66820593D01*
X144912947Y-66496967D01*
X144741227Y-66153998D01*
X144561041Y-65794029D01*
X144373560Y-65419406D01*
X144179959Y-65032474D01*
X143981408Y-64635579D01*
X143779081Y-64231064D01*
X143574149Y-63821276D01*
X143367786Y-63408560D01*
X143161163Y-62995260D01*
X142955453Y-62583721D01*
X142751829Y-62176289D01*
X142551463Y-61775309D01*
X142355527Y-61383126D01*
X142165195Y-61002085D01*
X141981637Y-60634531D01*
X141806027Y-60282809D01*
X141639537Y-59949264D01*
X141483340Y-59636242D01*
X141338608Y-59346087D01*
X141206513Y-59081144D01*
X141088229Y-58843760D01*
X140984926Y-58636278D01*
X140897778Y-58461043D01*
X140827958Y-58320402D01*
X140776637Y-58216698D01*
X140744988Y-58152278D01*
X140734184Y-58129486D01*
X140752871Y-58127920D01*
X140818379Y-58126178D01*
X140928809Y-58124491D01*
X141081895Y-58122866D01*
X141275371Y-58121310D01*
X141506969Y-58119833D01*
X141774425Y-58118442D01*
X142075471Y-58117145D01*
X142407841Y-58115951D01*
X142769268Y-58114867D01*
X143157487Y-58113901D01*
X143570232Y-58113062D01*
X144005235Y-58112357D01*
X144460230Y-58111795D01*
X144932952Y-58111383D01*
X145421133Y-58111131D01*
X145922508Y-58111045D01*
X146363127Y-58111093D01*
G37*
G36*
X139711539Y-58153386D02*
G01*
X139740947Y-58211297D01*
X139790632Y-58309730D01*
X139859622Y-58446745D01*
X139946943Y-58620403D01*
X140051622Y-58828765D01*
X140172688Y-59069890D01*
X140309166Y-59341840D01*
X140460084Y-59642675D01*
X140624470Y-59970454D01*
X140801350Y-60323239D01*
X140989751Y-60699091D01*
X141188702Y-61096069D01*
X141397228Y-61512233D01*
X141614357Y-61945645D01*
X141839117Y-62394365D01*
X142070535Y-62856453D01*
X142307637Y-63329970D01*
X144889896Y-68487424D01*
X139689346Y-68487424D01*
X134488796Y-68487424D01*
X137085009Y-63295044D01*
X137202199Y-63060699D01*
X137502815Y-62459871D01*
X137782184Y-61902006D01*
X138040719Y-61386291D01*
X138278831Y-60911915D01*
X138496932Y-60478067D01*
X138695435Y-60083934D01*
X138874752Y-59728705D01*
X139035293Y-59411569D01*
X139177472Y-59131713D01*
X139301701Y-58888327D01*
X139408392Y-58680599D01*
X139497955Y-58507717D01*
X139570805Y-58368869D01*
X139627352Y-58263244D01*
X139668009Y-58190030D01*
X139693187Y-58148416D01*
X139703300Y-58137590D01*
X139711539Y-58153386D01*
G37*
G36*
X135546128Y-59156059D02*
G01*
X135546128Y-60201074D01*
X134501114Y-60201074D01*
X133456099Y-60201074D01*
X133456099Y-64344249D01*
X133456099Y-68487424D01*
X132411085Y-68487424D01*
X131366070Y-68487424D01*
X131366070Y-64344249D01*
X131366070Y-60201074D01*
X130333350Y-60201074D01*
X129300630Y-60201074D01*
X129300630Y-59156059D01*
X129300630Y-58111045D01*
X132423379Y-58111045D01*
X135546128Y-58111045D01*
X135546128Y-59156059D01*
G37*
G36*
X128267910Y-63299234D02*
G01*
X128267910Y-68487424D01*
X125144893Y-68487424D01*
X122021877Y-68487424D01*
X122028291Y-67448557D01*
X122034705Y-66409689D01*
X124106294Y-66409689D01*
X126177883Y-66409689D01*
X126177882Y-65370822D01*
X126177881Y-64331954D01*
X124100146Y-64331954D01*
X122022411Y-64331954D01*
X122022411Y-63299234D01*
X122022411Y-62266514D01*
X124100146Y-62266514D01*
X126177881Y-62266514D01*
X126177881Y-61233794D01*
X126177881Y-60201074D01*
X124100146Y-60201074D01*
X122022411Y-60201074D01*
X122022411Y-59156059D01*
X122022411Y-58111045D01*
X125145160Y-58111045D01*
X128267910Y-58111045D01*
X128267910Y-63299234D01*
G37*
%TD*%
M02*
