%TF.GenerationSoftware,KiCad,Pcbnew,(7.0.0)*%
%TF.CreationDate,2023-03-07T20:41:21-05:00*%
%TF.ProjectId,Power Distribution Board,506f7765-7220-4446-9973-747269627574,rev?*%
%TF.SameCoordinates,Original*%
%TF.FileFunction,Copper,L1,Top*%
%TF.FilePolarity,Positive*%
%FSLAX46Y46*%
G04 Gerber Fmt 4.6, Leading zero omitted, Abs format (unit mm)*
G04 Created by KiCad (PCBNEW (7.0.0)) date 2023-03-07 20:41:21*
%MOMM*%
%LPD*%
G01*
G04 APERTURE LIST*
G04 Aperture macros list*
%AMRoundRect*
0 Rectangle with rounded corners*
0 $1 Rounding radius*
0 $2 $3 $4 $5 $6 $7 $8 $9 X,Y pos of 4 corners*
0 Add a 4 corners polygon primitive as box body*
4,1,4,$2,$3,$4,$5,$6,$7,$8,$9,$2,$3,0*
0 Add four circle primitives for the rounded corners*
1,1,$1+$1,$2,$3*
1,1,$1+$1,$4,$5*
1,1,$1+$1,$6,$7*
1,1,$1+$1,$8,$9*
0 Add four rect primitives between the rounded corners*
20,1,$1+$1,$2,$3,$4,$5,0*
20,1,$1+$1,$4,$5,$6,$7,0*
20,1,$1+$1,$6,$7,$8,$9,0*
20,1,$1+$1,$8,$9,$2,$3,0*%
G04 Aperture macros list end*
%TA.AperFunction,ComponentPad*%
%ADD10C,2.600000*%
%TD*%
%TA.AperFunction,ConnectorPad*%
%ADD11C,3.800000*%
%TD*%
%TA.AperFunction,ComponentPad*%
%ADD12R,1.520000X1.520000*%
%TD*%
%TA.AperFunction,ComponentPad*%
%ADD13C,1.520000*%
%TD*%
%TA.AperFunction,SMDPad,CuDef*%
%ADD14RoundRect,0.088500X0.206500X-0.516500X0.206500X0.516500X-0.206500X0.516500X-0.206500X-0.516500X0*%
%TD*%
%TA.AperFunction,ComponentPad*%
%ADD15C,0.600000*%
%TD*%
%TA.AperFunction,SMDPad,CuDef*%
%ADD16R,2.000000X0.750000*%
%TD*%
%TA.AperFunction,SMDPad,CuDef*%
%ADD17R,5.400000X2.900000*%
%TD*%
%TA.AperFunction,SMDPad,CuDef*%
%ADD18RoundRect,0.041300X0.253700X-0.943700X0.253700X0.943700X-0.253700X0.943700X-0.253700X-0.943700X0*%
%TD*%
%TA.AperFunction,SMDPad,CuDef*%
%ADD19R,4.000000X2.000000*%
%TD*%
%TA.AperFunction,SMDPad,CuDef*%
%ADD20RoundRect,0.250000X-0.450000X0.350000X-0.450000X-0.350000X0.450000X-0.350000X0.450000X0.350000X0*%
%TD*%
%TA.AperFunction,SMDPad,CuDef*%
%ADD21R,1.550000X2.330000*%
%TD*%
%TA.AperFunction,SMDPad,CuDef*%
%ADD22RoundRect,0.075000X0.212500X0.075000X-0.212500X0.075000X-0.212500X-0.075000X0.212500X-0.075000X0*%
%TD*%
%TA.AperFunction,SMDPad,CuDef*%
%ADD23RoundRect,0.075000X-0.212500X-0.075000X0.212500X-0.075000X0.212500X0.075000X-0.212500X0.075000X0*%
%TD*%
%TA.AperFunction,SMDPad,CuDef*%
%ADD24RoundRect,0.075000X0.075000X-0.212500X0.075000X0.212500X-0.075000X0.212500X-0.075000X-0.212500X0*%
%TD*%
%TA.AperFunction,SMDPad,CuDef*%
%ADD25RoundRect,0.075000X-0.075000X0.212500X-0.075000X-0.212500X0.075000X-0.212500X0.075000X0.212500X0*%
%TD*%
%TA.AperFunction,SMDPad,CuDef*%
%ADD26RoundRect,0.250000X-0.875000X-1.025000X0.875000X-1.025000X0.875000X1.025000X-0.875000X1.025000X0*%
%TD*%
%TA.AperFunction,SMDPad,CuDef*%
%ADD27RoundRect,0.250001X0.799999X-1.999999X0.799999X1.999999X-0.799999X1.999999X-0.799999X-1.999999X0*%
%TD*%
%TA.AperFunction,ViaPad*%
%ADD28C,0.600000*%
%TD*%
%TA.AperFunction,ViaPad*%
%ADD29C,2.100000*%
%TD*%
%TA.AperFunction,ViaPad*%
%ADD30C,1.200000*%
%TD*%
%TA.AperFunction,Conductor*%
%ADD31C,1.200000*%
%TD*%
%TA.AperFunction,Conductor*%
%ADD32C,2.100000*%
%TD*%
%TA.AperFunction,Conductor*%
%ADD33C,0.300000*%
%TD*%
%TA.AperFunction,Conductor*%
%ADD34C,0.600000*%
%TD*%
%TA.AperFunction,Conductor*%
%ADD35C,2.600000*%
%TD*%
G04 APERTURE END LIST*
D10*
%TO.P,REF\u002A\u002A,1*%
%TO.N,N/C*%
X171094400Y-87274400D03*
D11*
X171094400Y-87274400D03*
%TD*%
D10*
%TO.P,REF\u002A\u002A,1*%
%TO.N,N/C*%
X171094400Y-60452000D03*
D11*
X171094400Y-60452000D03*
%TD*%
D10*
%TO.P,REF\u002A\u002A,1*%
%TO.N,N/C*%
X123850400Y-60452000D03*
D11*
X123850400Y-60452000D03*
%TD*%
D12*
%TO.P,J3,1,Pin_1*%
%TO.N,+3V3*%
X128777999Y-70611999D03*
D13*
%TO.P,J3,2,Pin_2*%
%TO.N,GND*%
X128778000Y-67612000D03*
%TD*%
D11*
%TO.P,REF\u002A\u002A,1*%
%TO.N,N/C*%
X123799600Y-87274400D03*
D10*
X123799600Y-87274400D03*
%TD*%
D14*
%TO.P,U2,1,IN*%
%TO.N,+5V*%
X133350000Y-65500000D03*
%TO.P,U2,2,GND*%
%TO.N,GND*%
X134300000Y-65500000D03*
D15*
X134300000Y-64245000D03*
D16*
X134299999Y-64244999D03*
D14*
%TO.P,U2,3,EN*%
%TO.N,+5V*%
X135250000Y-65500000D03*
%TO.P,U2,4,NC*%
%TO.N,unconnected-(U2-NC-Pad4)*%
X135250000Y-62990000D03*
%TO.P,U2,5,OUT*%
%TO.N,+3V3*%
X133350000Y-62990000D03*
%TD*%
D17*
%TO.P,L1,2,2*%
%TO.N,+5V*%
X139445999Y-87169999D03*
%TO.P,L1,1,1*%
%TO.N,Net-(D1-C)*%
X139445999Y-77469999D03*
%TD*%
D18*
%TO.P,U1,8,LX*%
%TO.N,Net-(D1-C)*%
X151130000Y-77978000D03*
%TO.P,U1,7,VIN*%
%TO.N,+15V*%
X152400000Y-77978000D03*
%TO.P,U1,6,GND*%
%TO.N,GND*%
X153670000Y-77978000D03*
D15*
X154535000Y-79953000D03*
X153535000Y-79953000D03*
X152535000Y-79953000D03*
X151535000Y-79953000D03*
D19*
X153034999Y-80452999D03*
D15*
X154535000Y-80953000D03*
X153535000Y-80953000D03*
X152535000Y-80953000D03*
X151535000Y-80953000D03*
D18*
%TO.P,U1,5,ON/~{OFF}*%
%TO.N,Net-(U1-ON{slash}~{OFF})*%
X154940000Y-77978000D03*
%TO.P,U1,4,FB*%
%TO.N,+5V*%
X154940000Y-82928000D03*
%TO.P,U1,3,SGND*%
%TO.N,GND*%
X153670000Y-82928000D03*
%TO.P,U1,2,VD*%
%TO.N,Net-(U1-VD)*%
X152400000Y-82928000D03*
%TO.P,U1,1,BST*%
%TO.N,Net-(U1-BST)*%
X151130000Y-82928000D03*
%TD*%
D20*
%TO.P,R2,1*%
%TO.N,Net-(U1-ON{slash}~{OFF})*%
X158750000Y-78105000D03*
%TO.P,R2,2*%
%TO.N,GND*%
X158750000Y-80105000D03*
%TD*%
%TO.P,R1,1*%
%TO.N,+15V*%
X158750000Y-73870000D03*
%TO.P,R1,2*%
%TO.N,Net-(U1-ON{slash}~{OFF})*%
X158750000Y-75870000D03*
%TD*%
D13*
%TO.P,J5,2,Pin_2*%
%TO.N,GND*%
X163120000Y-82340000D03*
D12*
%TO.P,J5,1,Pin_1*%
%TO.N,/MOTOR_PS2*%
X166119999Y-82339999D03*
%TD*%
%TO.P,J4,1,Pin_1*%
%TO.N,/MOTOR_PS1*%
X163109999Y-65399999D03*
D13*
%TO.P,J4,2,Pin_2*%
%TO.N,GND*%
X166110000Y-65400000D03*
%TD*%
%TO.P,J2,2,Pin_2*%
%TO.N,GND*%
X128778000Y-77216000D03*
D12*
%TO.P,J2,1,Pin_1*%
%TO.N,+5V*%
X128777999Y-80215999D03*
%TD*%
%TO.P,J1,1,1*%
%TO.N,GND*%
X166115999Y-70865999D03*
D13*
%TO.P,J1,2,2*%
X166116000Y-73865999D03*
%TO.P,J1,3,3*%
X166116000Y-76865998D03*
%TO.P,J1,4,4*%
%TO.N,/MOTOR_PS1*%
X163116001Y-70866000D03*
%TO.P,J1,5,5*%
%TO.N,+15V*%
X163116001Y-73865999D03*
%TO.P,J1,6,6*%
%TO.N,/MOTOR_PS2*%
X163116001Y-76865998D03*
%TD*%
D21*
%TO.P,D1,2,A*%
%TO.N,GND*%
X148103999Y-73202499D03*
%TO.P,D1,1,C*%
%TO.N,Net-(D1-C)*%
X148103999Y-77472499D03*
%TD*%
D22*
%TO.P,C_IN4,1*%
%TO.N,+3V3*%
X131674000Y-62992000D03*
%TO.P,C_IN4,2*%
%TO.N,GND*%
X130999000Y-62992000D03*
%TD*%
D23*
%TO.P,C_IN3,1*%
%TO.N,GND*%
X132672500Y-67564000D03*
%TO.P,C_IN3,2*%
%TO.N,+5V*%
X133347500Y-67564000D03*
%TD*%
D24*
%TO.P,C_IN2,2*%
%TO.N,Net-(D1-C)*%
X149606000Y-80112500D03*
%TO.P,C_IN2,1*%
%TO.N,Net-(U1-BST)*%
X149606000Y-80787500D03*
%TD*%
D25*
%TO.P,C_IN1,1*%
%TO.N,Net-(U1-VD)*%
X152400000Y-85115000D03*
%TO.P,C_IN1,2*%
%TO.N,GND*%
X152400000Y-85790000D03*
%TD*%
D26*
%TO.P,C2,2*%
%TO.N,GND*%
X140741000Y-71374000D03*
%TO.P,C2,1*%
%TO.N,+5V*%
X134341000Y-71374000D03*
%TD*%
D27*
%TO.P,C1,2*%
%TO.N,GND*%
X155090000Y-65000000D03*
%TO.P,C1,1*%
%TO.N,+15V*%
X155090000Y-72200000D03*
%TD*%
D28*
%TO.N,GND*%
X130048000Y-62984000D03*
X131572000Y-67564000D03*
D29*
X148082000Y-63246000D03*
D28*
X152400000Y-86868000D03*
D30*
X158750000Y-81788000D03*
%TD*%
D31*
%TO.N,GND*%
X148104000Y-73202500D02*
X148104000Y-63268000D01*
X148104000Y-63268000D02*
X148082000Y-63246000D01*
%TO.N,+5V*%
X134341000Y-76720500D02*
X134341000Y-76454000D01*
X130845500Y-80216000D02*
X134341000Y-76720500D01*
X128778000Y-80216000D02*
X130845500Y-80216000D01*
D32*
X134341000Y-76454000D02*
X134341000Y-83287000D01*
X134341000Y-71374000D02*
X134341000Y-76454000D01*
D33*
%TO.N,+3V3*%
X131675000Y-63651000D02*
X131675000Y-63000000D01*
X130302000Y-65024000D02*
X131675000Y-63651000D01*
X128778000Y-70612000D02*
X130302000Y-69088000D01*
X130302000Y-69088000D02*
X130302000Y-65024000D01*
%TO.N,GND*%
X130056000Y-63000000D02*
X130048000Y-62992000D01*
X131000000Y-62992000D02*
X130056000Y-62992000D01*
%TO.N,+3V3*%
X131685000Y-62990000D02*
X131675000Y-63000000D01*
X133350000Y-62990000D02*
X131685000Y-62990000D01*
D34*
%TO.N,GND*%
X134300000Y-65500000D02*
X134300000Y-64245000D01*
D33*
%TO.N,+5V*%
X133858000Y-66548000D02*
X133347500Y-67058500D01*
X134595133Y-66548000D02*
X133858000Y-66548000D01*
X133347500Y-67058500D02*
X133347500Y-67564000D01*
X135250000Y-65893133D02*
X134595133Y-66548000D01*
X135250000Y-65500000D02*
X135250000Y-65893133D01*
%TO.N,GND*%
X132672500Y-67564000D02*
X131572000Y-67564000D01*
%TO.N,+5V*%
X134366000Y-68582500D02*
X133347500Y-67564000D01*
X134366000Y-71349000D02*
X134366000Y-68582500D01*
X134341000Y-71374000D02*
X134366000Y-71349000D01*
X133350000Y-65500000D02*
X133350000Y-67561500D01*
X133350000Y-67561500D02*
X133347500Y-67564000D01*
D34*
X152654000Y-88138000D02*
X154940000Y-85852000D01*
X154940000Y-85852000D02*
X154940000Y-82928000D01*
X139446000Y-87170000D02*
X140414000Y-88138000D01*
X140414000Y-88138000D02*
X152654000Y-88138000D01*
D32*
%TO.N,GND*%
X140741000Y-70587000D02*
X148082000Y-63246000D01*
X140741000Y-71374000D02*
X140741000Y-70587000D01*
X154478000Y-63246000D02*
X148082000Y-63246000D01*
X155090000Y-65000000D02*
X155090000Y-63858000D01*
X155090000Y-63858000D02*
X154478000Y-63246000D01*
%TO.N,+5V*%
X138224000Y-87170000D02*
X139446000Y-87170000D01*
X134341000Y-83287000D02*
X138224000Y-87170000D01*
D33*
%TO.N,GND*%
X152400000Y-85790000D02*
X152400000Y-86868000D01*
%TO.N,Net-(U1-BST)*%
X149606000Y-81153000D02*
X149606000Y-80787500D01*
X151130000Y-82677000D02*
X149606000Y-81153000D01*
X151130000Y-82928000D02*
X151130000Y-82677000D01*
%TO.N,Net-(D1-C)*%
X149606000Y-79756000D02*
X149606000Y-80112500D01*
X151130000Y-78232000D02*
X149606000Y-79756000D01*
X151130000Y-77978000D02*
X151130000Y-78232000D01*
%TO.N,Net-(U1-VD)*%
X152400000Y-82928000D02*
X152400000Y-85115000D01*
D34*
%TO.N,Net-(U1-ON{slash}~{OFF})*%
X156030000Y-75870000D02*
X154940000Y-76960000D01*
X154940000Y-76960000D02*
X154940000Y-77978000D01*
X158750000Y-75870000D02*
X156030000Y-75870000D01*
%TO.N,+15V*%
X152400000Y-76050000D02*
X152400000Y-77978000D01*
X155090000Y-73360000D02*
X152400000Y-76050000D01*
X155090000Y-72200000D02*
X155090000Y-73360000D01*
D31*
X158750000Y-73870000D02*
X155530000Y-73870000D01*
%TO.N,GND*%
X158750000Y-80105000D02*
X158750000Y-81788000D01*
%TO.N,Net-(U1-ON{slash}~{OFF})*%
X158750000Y-75870000D02*
X158750000Y-78105000D01*
%TO.N,+15V*%
X158754001Y-73865999D02*
X158750000Y-73870000D01*
X163116001Y-73865999D02*
X158754001Y-73865999D01*
D34*
%TO.N,GND*%
X153670000Y-81088000D02*
X153535000Y-80953000D01*
X153670000Y-82928000D02*
X153670000Y-81088000D01*
X153670000Y-79818000D02*
X153535000Y-79953000D01*
X153670000Y-77978000D02*
X153670000Y-79818000D01*
D35*
%TO.N,/MOTOR_PS2*%
X166120000Y-81100000D02*
X166120000Y-82340000D01*
X163116001Y-78096001D02*
X166120000Y-81100000D01*
X163116001Y-76865998D02*
X163116001Y-78096001D01*
%TO.N,/MOTOR_PS1*%
X163110000Y-70859999D02*
X163116001Y-70866000D01*
X163110000Y-65400000D02*
X163110000Y-70859999D01*
%TD*%
%TA.AperFunction,Conductor*%
%TO.N,Net-(D1-C)*%
G36*
X151146059Y-75820061D02*
G01*
X151251223Y-75833906D01*
X151282491Y-75842284D01*
X151372918Y-75879740D01*
X151400952Y-75895925D01*
X151478602Y-75955509D01*
X151501491Y-75978398D01*
X151561074Y-76056048D01*
X151577259Y-76084081D01*
X151614715Y-76174508D01*
X151623093Y-76205775D01*
X151636939Y-76310940D01*
X151638000Y-76327126D01*
X151638000Y-78612874D01*
X151636939Y-78629060D01*
X151623093Y-78734224D01*
X151614715Y-78765491D01*
X151577259Y-78855918D01*
X151561074Y-78883951D01*
X151501491Y-78961601D01*
X151478601Y-78984491D01*
X151400951Y-79044074D01*
X151372918Y-79060259D01*
X151282491Y-79097715D01*
X151251224Y-79106093D01*
X151157398Y-79118446D01*
X151146058Y-79119939D01*
X151129874Y-79121000D01*
X136906126Y-79121000D01*
X136889941Y-79119939D01*
X136876917Y-79118224D01*
X136784775Y-79106093D01*
X136753508Y-79097715D01*
X136663081Y-79060259D01*
X136635048Y-79044074D01*
X136557398Y-78984491D01*
X136534508Y-78961601D01*
X136474925Y-78883951D01*
X136458740Y-78855918D01*
X136421284Y-78765491D01*
X136412906Y-78734223D01*
X136399061Y-78629059D01*
X136398000Y-78612874D01*
X136398000Y-76327126D01*
X136399061Y-76310941D01*
X136412906Y-76205776D01*
X136421284Y-76174508D01*
X136458740Y-76084081D01*
X136474923Y-76056050D01*
X136534513Y-75978392D01*
X136557392Y-75955513D01*
X136635050Y-75895923D01*
X136663079Y-75879740D01*
X136753509Y-75842283D01*
X136784775Y-75833906D01*
X136889940Y-75820061D01*
X136906126Y-75819000D01*
X151129874Y-75819000D01*
X151146059Y-75820061D01*
G37*
%TD.AperFunction*%
%TD*%
M02*
