%TF.GenerationSoftware,KiCad,Pcbnew,(7.0.0)*%
%TF.CreationDate,2023-03-07T20:41:21-05:00*%
%TF.ProjectId,Power Distribution Board,506f7765-7220-4446-9973-747269627574,rev?*%
%TF.SameCoordinates,Original*%
%TF.FileFunction,Copper,L2,Bot*%
%TF.FilePolarity,Positive*%
%FSLAX46Y46*%
G04 Gerber Fmt 4.6, Leading zero omitted, Abs format (unit mm)*
G04 Created by KiCad (PCBNEW (7.0.0)) date 2023-03-07 20:41:21*
%MOMM*%
%LPD*%
G01*
G04 APERTURE LIST*
%TA.AperFunction,ComponentPad*%
%ADD10C,2.600000*%
%TD*%
%TA.AperFunction,ConnectorPad*%
%ADD11C,3.800000*%
%TD*%
%TA.AperFunction,ComponentPad*%
%ADD12R,1.520000X1.520000*%
%TD*%
%TA.AperFunction,ComponentPad*%
%ADD13C,1.520000*%
%TD*%
%TA.AperFunction,ComponentPad*%
%ADD14C,0.600000*%
%TD*%
%TA.AperFunction,ViaPad*%
%ADD15C,0.600000*%
%TD*%
%TA.AperFunction,ViaPad*%
%ADD16C,2.100000*%
%TD*%
%TA.AperFunction,ViaPad*%
%ADD17C,1.200000*%
%TD*%
G04 APERTURE END LIST*
D10*
%TO.P,REF\u002A\u002A,1*%
%TO.N,N/C*%
X171094400Y-87274400D03*
D11*
X171094400Y-87274400D03*
%TD*%
D10*
%TO.P,REF\u002A\u002A,1*%
%TO.N,N/C*%
X171094400Y-60452000D03*
D11*
X171094400Y-60452000D03*
%TD*%
D10*
%TO.P,REF\u002A\u002A,1*%
%TO.N,N/C*%
X123850400Y-60452000D03*
D11*
X123850400Y-60452000D03*
%TD*%
D12*
%TO.P,J3,1,Pin_1*%
%TO.N,+3V3*%
X128777999Y-70611999D03*
D13*
%TO.P,J3,2,Pin_2*%
%TO.N,GND*%
X128778000Y-67612000D03*
%TD*%
D11*
%TO.P,REF\u002A\u002A,1*%
%TO.N,N/C*%
X123799600Y-87274400D03*
D10*
X123799600Y-87274400D03*
%TD*%
D14*
%TO.P,U2,2,GND*%
%TO.N,GND*%
X134300000Y-64245000D03*
%TD*%
%TO.P,U1,6,GND*%
%TO.N,GND*%
X154535000Y-79953000D03*
X153535000Y-79953000D03*
X152535000Y-79953000D03*
X151535000Y-79953000D03*
X154535000Y-80953000D03*
X153535000Y-80953000D03*
X152535000Y-80953000D03*
X151535000Y-80953000D03*
%TD*%
D13*
%TO.P,J5,2,Pin_2*%
%TO.N,GND*%
X163120000Y-82340000D03*
D12*
%TO.P,J5,1,Pin_1*%
%TO.N,/MOTOR_PS2*%
X166119999Y-82339999D03*
%TD*%
%TO.P,J4,1,Pin_1*%
%TO.N,/MOTOR_PS1*%
X163109999Y-65399999D03*
D13*
%TO.P,J4,2,Pin_2*%
%TO.N,GND*%
X166110000Y-65400000D03*
%TD*%
%TO.P,J2,2,Pin_2*%
%TO.N,GND*%
X128778000Y-77216000D03*
D12*
%TO.P,J2,1,Pin_1*%
%TO.N,+5V*%
X128777999Y-80215999D03*
%TD*%
%TO.P,J1,1,1*%
%TO.N,GND*%
X166115999Y-70865999D03*
D13*
%TO.P,J1,2,2*%
X166116000Y-73865999D03*
%TO.P,J1,3,3*%
X166116000Y-76865998D03*
%TO.P,J1,4,4*%
%TO.N,/MOTOR_PS1*%
X163116001Y-70866000D03*
%TO.P,J1,5,5*%
%TO.N,+15V*%
X163116001Y-73865999D03*
%TO.P,J1,6,6*%
%TO.N,/MOTOR_PS2*%
X163116001Y-76865998D03*
%TD*%
D15*
%TO.N,GND*%
X130048000Y-62984000D03*
X131572000Y-67564000D03*
D16*
X148082000Y-63246000D03*
D15*
X152400000Y-86868000D03*
D17*
X158750000Y-81788000D03*
%TD*%
%TA.AperFunction,Conductor*%
%TO.N,GND*%
G36*
X162865864Y-60465305D02*
G01*
X162909753Y-60502366D01*
X162932231Y-60555230D01*
X162928474Y-60612548D01*
X162898604Y-60709385D01*
X162897914Y-60713961D01*
X162897912Y-60713971D01*
X162860190Y-60964234D01*
X162860189Y-60964246D01*
X162859500Y-60968818D01*
X162859500Y-61231182D01*
X162860189Y-61235754D01*
X162860190Y-61235765D01*
X162897912Y-61486028D01*
X162897913Y-61486035D01*
X162898604Y-61490615D01*
X162899969Y-61495043D01*
X162899971Y-61495048D01*
X162974569Y-61736891D01*
X162974573Y-61736901D01*
X162975937Y-61741323D01*
X162977946Y-61745496D01*
X162977949Y-61745502D01*
X163087756Y-61973518D01*
X163089772Y-61977704D01*
X163237567Y-62194479D01*
X163416019Y-62386805D01*
X163621143Y-62550386D01*
X163848357Y-62681568D01*
X164092584Y-62777420D01*
X164348370Y-62835802D01*
X164544506Y-62850500D01*
X164673177Y-62850500D01*
X164675494Y-62850500D01*
X164871630Y-62835802D01*
X165127416Y-62777420D01*
X165371643Y-62681568D01*
X165598857Y-62550386D01*
X165803981Y-62386805D01*
X165982433Y-62194479D01*
X166130228Y-61977704D01*
X166244063Y-61741323D01*
X166321396Y-61490615D01*
X166360500Y-61231182D01*
X166362404Y-61231469D01*
X166383067Y-61175311D01*
X166436799Y-61133453D01*
X166504534Y-61126290D01*
X166565833Y-61155982D01*
X166756127Y-61326039D01*
X166765958Y-61335870D01*
X166900147Y-61486028D01*
X166980859Y-61576344D01*
X166989528Y-61587216D01*
X167176139Y-61850219D01*
X167183538Y-61861993D01*
X167339539Y-62144255D01*
X167345572Y-62156784D01*
X167468983Y-62454727D01*
X167473576Y-62467851D01*
X167562856Y-62777747D01*
X167565950Y-62791304D01*
X167619970Y-63109240D01*
X167621527Y-63123058D01*
X167639805Y-63448528D01*
X167640000Y-63455481D01*
X167640000Y-84372519D01*
X167639805Y-84379472D01*
X167621527Y-84704941D01*
X167619970Y-84718759D01*
X167565950Y-85036695D01*
X167562856Y-85050252D01*
X167473576Y-85360148D01*
X167468983Y-85373272D01*
X167345572Y-85671215D01*
X167339539Y-85683744D01*
X167183538Y-85966006D01*
X167176139Y-85977780D01*
X166989528Y-86240783D01*
X166980859Y-86251655D01*
X166765960Y-86492127D01*
X166756127Y-86501959D01*
X166577127Y-86661924D01*
X166527489Y-86688996D01*
X166470992Y-86691216D01*
X166419382Y-86668123D01*
X166383391Y-86624517D01*
X166370500Y-86569465D01*
X166370500Y-86513453D01*
X166370500Y-86508818D01*
X166331396Y-86249385D01*
X166254063Y-85998677D01*
X166140228Y-85762296D01*
X165992433Y-85545521D01*
X165813981Y-85353195D01*
X165608857Y-85189614D01*
X165514216Y-85134973D01*
X165385664Y-85060753D01*
X165385658Y-85060750D01*
X165381643Y-85058432D01*
X165377324Y-85056737D01*
X165377318Y-85056734D01*
X165141738Y-84964276D01*
X165141734Y-84964275D01*
X165137416Y-84962580D01*
X165132893Y-84961547D01*
X165132891Y-84961547D01*
X164886149Y-84905229D01*
X164886143Y-84905228D01*
X164881630Y-84904198D01*
X164877008Y-84903851D01*
X164877004Y-84903851D01*
X164687808Y-84889673D01*
X164687797Y-84889672D01*
X164685494Y-84889500D01*
X164554506Y-84889500D01*
X164552203Y-84889672D01*
X164552191Y-84889673D01*
X164362995Y-84903851D01*
X164362989Y-84903851D01*
X164358370Y-84904198D01*
X164353858Y-84905227D01*
X164353850Y-84905229D01*
X164107108Y-84961547D01*
X164107102Y-84961548D01*
X164102584Y-84962580D01*
X164098268Y-84964273D01*
X164098261Y-84964276D01*
X163862681Y-85056734D01*
X163862670Y-85056739D01*
X163858357Y-85058432D01*
X163854346Y-85060747D01*
X163854335Y-85060753D01*
X163635161Y-85187294D01*
X163631143Y-85189614D01*
X163627519Y-85192503D01*
X163627516Y-85192506D01*
X163429646Y-85350302D01*
X163429641Y-85350306D01*
X163426019Y-85353195D01*
X163422865Y-85356593D01*
X163422863Y-85356596D01*
X163250719Y-85542123D01*
X163250713Y-85542129D01*
X163247567Y-85545521D01*
X163244957Y-85549348D01*
X163244957Y-85549349D01*
X163153333Y-85683737D01*
X163099772Y-85762296D01*
X163097759Y-85766474D01*
X163097756Y-85766481D01*
X162987949Y-85994497D01*
X162987944Y-85994508D01*
X162985937Y-85998677D01*
X162984574Y-86003093D01*
X162984569Y-86003108D01*
X162909971Y-86244951D01*
X162909968Y-86244959D01*
X162908604Y-86249385D01*
X162907914Y-86253961D01*
X162907912Y-86253971D01*
X162870190Y-86504234D01*
X162870189Y-86504246D01*
X162869500Y-86508818D01*
X162869500Y-86771182D01*
X162870189Y-86775754D01*
X162870190Y-86775765D01*
X162907912Y-87026028D01*
X162907913Y-87026035D01*
X162908604Y-87030615D01*
X162909969Y-87035043D01*
X162909971Y-87035048D01*
X162965618Y-87215450D01*
X162969375Y-87272771D01*
X162946897Y-87325634D01*
X162903008Y-87362695D01*
X162847127Y-87376000D01*
X130257481Y-87376000D01*
X130250528Y-87375805D01*
X129925058Y-87357527D01*
X129911240Y-87355970D01*
X129593304Y-87301950D01*
X129579747Y-87298856D01*
X129269851Y-87209576D01*
X129256727Y-87204983D01*
X128958784Y-87081572D01*
X128946255Y-87075539D01*
X128663993Y-86919538D01*
X128652219Y-86912139D01*
X128389216Y-86725528D01*
X128378344Y-86716859D01*
X128349649Y-86691216D01*
X128137870Y-86501958D01*
X128128039Y-86492127D01*
X127913140Y-86251655D01*
X127904475Y-86240789D01*
X127717859Y-85977779D01*
X127710461Y-85966006D01*
X127554456Y-85683737D01*
X127548427Y-85671215D01*
X127425016Y-85373272D01*
X127420423Y-85360148D01*
X127334168Y-85060753D01*
X127331142Y-85050250D01*
X127328049Y-85036695D01*
X127274027Y-84718748D01*
X127272473Y-84704949D01*
X127254195Y-84379471D01*
X127254000Y-84372519D01*
X127254000Y-83512183D01*
X162658756Y-83512183D01*
X162667651Y-83519322D01*
X162682501Y-83526247D01*
X162692635Y-83529935D01*
X162895135Y-83584196D01*
X162905766Y-83586070D01*
X163114605Y-83604341D01*
X163125395Y-83604341D01*
X163334233Y-83586070D01*
X163344864Y-83584196D01*
X163547362Y-83529936D01*
X163557503Y-83526244D01*
X163572346Y-83519322D01*
X163581242Y-83512183D01*
X163575325Y-83502432D01*
X163217471Y-83144578D01*
X164859500Y-83144578D01*
X164859501Y-83147872D01*
X164859853Y-83151150D01*
X164859854Y-83151161D01*
X164865079Y-83199768D01*
X164865080Y-83199773D01*
X164865909Y-83207483D01*
X164868619Y-83214749D01*
X164868620Y-83214753D01*
X164902217Y-83304831D01*
X164916204Y-83342331D01*
X165002454Y-83457546D01*
X165117669Y-83543796D01*
X165252517Y-83594091D01*
X165312127Y-83600500D01*
X166927872Y-83600499D01*
X166987483Y-83594091D01*
X167122331Y-83543796D01*
X167237546Y-83457546D01*
X167323796Y-83342331D01*
X167374091Y-83207483D01*
X167380500Y-83147873D01*
X167380499Y-81532128D01*
X167374091Y-81472517D01*
X167323796Y-81337669D01*
X167237546Y-81222454D01*
X167145773Y-81153753D01*
X167129431Y-81141519D01*
X167129430Y-81141518D01*
X167122331Y-81136204D01*
X167008986Y-81093929D01*
X166994752Y-81088620D01*
X166994750Y-81088619D01*
X166987483Y-81085909D01*
X166979770Y-81085079D01*
X166979767Y-81085079D01*
X166931180Y-81079855D01*
X166931169Y-81079854D01*
X166927873Y-81079500D01*
X166924550Y-81079500D01*
X165315439Y-81079500D01*
X165315420Y-81079500D01*
X165312128Y-81079501D01*
X165308850Y-81079853D01*
X165308838Y-81079854D01*
X165260231Y-81085079D01*
X165260225Y-81085080D01*
X165252517Y-81085909D01*
X165245252Y-81088618D01*
X165245246Y-81088620D01*
X165125980Y-81133104D01*
X165125978Y-81133104D01*
X165117669Y-81136204D01*
X165110572Y-81141516D01*
X165110568Y-81141519D01*
X165009550Y-81217141D01*
X165009546Y-81217144D01*
X165002454Y-81222454D01*
X164997144Y-81229546D01*
X164997141Y-81229550D01*
X164921519Y-81330568D01*
X164921516Y-81330572D01*
X164916204Y-81337669D01*
X164913104Y-81345978D01*
X164913104Y-81345980D01*
X164868620Y-81465247D01*
X164868619Y-81465250D01*
X164865909Y-81472517D01*
X164865079Y-81480227D01*
X164865079Y-81480232D01*
X164859855Y-81528819D01*
X164859854Y-81528831D01*
X164859500Y-81532127D01*
X164859500Y-81535448D01*
X164859500Y-81535449D01*
X164859500Y-83144560D01*
X164859500Y-83144578D01*
X163217471Y-83144578D01*
X163131542Y-83058649D01*
X163120000Y-83051985D01*
X163108456Y-83058650D01*
X162664673Y-83502432D01*
X162658756Y-83512183D01*
X127254000Y-83512183D01*
X127254000Y-82345395D01*
X161855659Y-82345395D01*
X161873929Y-82554233D01*
X161875803Y-82564864D01*
X161930066Y-82767371D01*
X161933748Y-82777489D01*
X161940677Y-82792348D01*
X161947815Y-82801242D01*
X161957567Y-82795324D01*
X162401350Y-82351542D01*
X162408014Y-82340000D01*
X163831985Y-82340000D01*
X163838649Y-82351542D01*
X164282432Y-82795325D01*
X164292183Y-82801242D01*
X164299322Y-82792346D01*
X164306244Y-82777503D01*
X164309936Y-82767362D01*
X164364196Y-82564864D01*
X164366070Y-82554233D01*
X164384341Y-82345395D01*
X164384341Y-82334605D01*
X164366070Y-82125766D01*
X164364196Y-82115135D01*
X164309935Y-81912635D01*
X164306247Y-81902501D01*
X164299322Y-81887651D01*
X164292183Y-81878756D01*
X164282432Y-81884673D01*
X163838650Y-82328456D01*
X163831985Y-82340000D01*
X162408014Y-82340000D01*
X162401350Y-82328457D01*
X161957567Y-81884674D01*
X161947815Y-81878757D01*
X161940675Y-81887654D01*
X161933753Y-81902499D01*
X161930064Y-81912635D01*
X161875803Y-82115135D01*
X161873929Y-82125766D01*
X161855659Y-82334605D01*
X161855659Y-82345395D01*
X127254000Y-82345395D01*
X127254000Y-81689634D01*
X151226698Y-81689634D01*
X151236277Y-81696034D01*
X151349282Y-81735576D01*
X151362780Y-81738657D01*
X151528077Y-81757282D01*
X151541923Y-81757282D01*
X151707219Y-81738657D01*
X151720717Y-81735576D01*
X151833721Y-81696035D01*
X151843300Y-81689634D01*
X152226698Y-81689634D01*
X152236277Y-81696034D01*
X152349282Y-81735576D01*
X152362780Y-81738657D01*
X152528077Y-81757282D01*
X152541923Y-81757282D01*
X152707219Y-81738657D01*
X152720717Y-81735576D01*
X152833721Y-81696035D01*
X152843300Y-81689634D01*
X153226698Y-81689634D01*
X153236277Y-81696034D01*
X153349282Y-81735576D01*
X153362780Y-81738657D01*
X153528077Y-81757282D01*
X153541923Y-81757282D01*
X153707219Y-81738657D01*
X153720717Y-81735576D01*
X153833721Y-81696035D01*
X153843300Y-81689634D01*
X154226698Y-81689634D01*
X154236277Y-81696034D01*
X154349282Y-81735576D01*
X154362780Y-81738657D01*
X154528077Y-81757282D01*
X154541923Y-81757282D01*
X154707219Y-81738657D01*
X154720717Y-81735576D01*
X154833721Y-81696035D01*
X154843300Y-81689634D01*
X154837446Y-81679710D01*
X154546542Y-81388806D01*
X154535000Y-81382142D01*
X154523456Y-81388807D01*
X154232552Y-81679710D01*
X154226698Y-81689634D01*
X153843300Y-81689634D01*
X153837446Y-81679710D01*
X153546542Y-81388806D01*
X153535000Y-81382142D01*
X153523456Y-81388807D01*
X153232552Y-81679710D01*
X153226698Y-81689634D01*
X152843300Y-81689634D01*
X152837446Y-81679710D01*
X152546542Y-81388806D01*
X152535000Y-81382142D01*
X152523456Y-81388807D01*
X152232552Y-81679710D01*
X152226698Y-81689634D01*
X151843300Y-81689634D01*
X151837446Y-81679710D01*
X151546542Y-81388806D01*
X151535000Y-81382142D01*
X151523456Y-81388807D01*
X151232552Y-81679710D01*
X151226698Y-81689634D01*
X127254000Y-81689634D01*
X127254000Y-81020578D01*
X127517500Y-81020578D01*
X127517501Y-81023872D01*
X127517853Y-81027150D01*
X127517854Y-81027161D01*
X127523079Y-81075768D01*
X127523080Y-81075773D01*
X127523909Y-81083483D01*
X127526619Y-81090749D01*
X127526620Y-81090753D01*
X127544508Y-81138712D01*
X127574204Y-81218331D01*
X127579518Y-81225430D01*
X127579519Y-81225431D01*
X127599200Y-81251722D01*
X127660454Y-81333546D01*
X127775669Y-81419796D01*
X127910517Y-81470091D01*
X127970127Y-81476500D01*
X129585872Y-81476499D01*
X129645483Y-81470091D01*
X129780331Y-81419796D01*
X129895546Y-81333546D01*
X129981796Y-81218331D01*
X130032091Y-81083483D01*
X130038500Y-81023873D01*
X130038500Y-80959923D01*
X150730718Y-80959923D01*
X150749343Y-81125225D01*
X150752421Y-81138712D01*
X150791964Y-81251722D01*
X150798363Y-81261300D01*
X150808290Y-81255444D01*
X151099193Y-80964542D01*
X151105857Y-80953000D01*
X151964142Y-80953000D01*
X151970806Y-80964542D01*
X152023457Y-81017193D01*
X152035000Y-81023857D01*
X152046542Y-81017193D01*
X152099193Y-80964542D01*
X152105857Y-80953000D01*
X152964142Y-80953000D01*
X152970806Y-80964542D01*
X153023457Y-81017193D01*
X153035000Y-81023857D01*
X153046542Y-81017193D01*
X153099193Y-80964542D01*
X153105857Y-80953000D01*
X153964142Y-80953000D01*
X153970806Y-80964542D01*
X154023457Y-81017193D01*
X154035000Y-81023857D01*
X154046542Y-81017193D01*
X154099193Y-80964542D01*
X154105857Y-80953000D01*
X154964142Y-80953000D01*
X154970806Y-80964542D01*
X155261710Y-81255446D01*
X155271634Y-81261300D01*
X155278035Y-81251721D01*
X155307394Y-81167815D01*
X162658757Y-81167815D01*
X162664674Y-81177567D01*
X163108457Y-81621350D01*
X163120000Y-81628014D01*
X163131542Y-81621350D01*
X163575324Y-81177567D01*
X163581242Y-81167815D01*
X163572348Y-81160677D01*
X163557489Y-81153748D01*
X163547371Y-81150066D01*
X163344864Y-81095803D01*
X163334233Y-81093929D01*
X163125395Y-81075659D01*
X163114605Y-81075659D01*
X162905766Y-81093929D01*
X162895135Y-81095803D01*
X162692635Y-81150064D01*
X162682499Y-81153753D01*
X162667654Y-81160675D01*
X162658757Y-81167815D01*
X155307394Y-81167815D01*
X155317576Y-81138717D01*
X155320657Y-81125219D01*
X155339282Y-80959923D01*
X155339282Y-80946077D01*
X155320657Y-80780780D01*
X155317576Y-80767282D01*
X155278034Y-80654277D01*
X155271634Y-80644698D01*
X155261710Y-80650552D01*
X154970807Y-80941456D01*
X154964142Y-80953000D01*
X154105857Y-80953000D01*
X154099193Y-80941457D01*
X154046542Y-80888806D01*
X154035000Y-80882142D01*
X154023457Y-80888806D01*
X153970806Y-80941457D01*
X153964142Y-80953000D01*
X153105857Y-80953000D01*
X153099193Y-80941457D01*
X153046542Y-80888806D01*
X153035000Y-80882142D01*
X153023457Y-80888806D01*
X152970806Y-80941457D01*
X152964142Y-80953000D01*
X152105857Y-80953000D01*
X152099193Y-80941457D01*
X152046542Y-80888806D01*
X152035000Y-80882142D01*
X152023457Y-80888806D01*
X151970806Y-80941457D01*
X151964142Y-80953000D01*
X151105857Y-80953000D01*
X151099192Y-80941456D01*
X150808289Y-80650553D01*
X150798363Y-80644698D01*
X150791964Y-80654276D01*
X150752421Y-80767287D01*
X150749343Y-80780774D01*
X150730718Y-80946077D01*
X150730718Y-80959923D01*
X130038500Y-80959923D01*
X130038499Y-80452999D01*
X151464142Y-80452999D01*
X151470806Y-80464542D01*
X151523457Y-80517193D01*
X151535000Y-80523857D01*
X151546542Y-80517193D01*
X151599193Y-80464542D01*
X151605857Y-80452999D01*
X152464142Y-80452999D01*
X152470806Y-80464542D01*
X152523457Y-80517193D01*
X152535000Y-80523857D01*
X152546542Y-80517193D01*
X152599193Y-80464542D01*
X152605857Y-80452999D01*
X153464142Y-80452999D01*
X153470806Y-80464542D01*
X153523457Y-80517193D01*
X153535000Y-80523857D01*
X153546542Y-80517193D01*
X153599193Y-80464542D01*
X153605857Y-80452999D01*
X154464142Y-80452999D01*
X154470806Y-80464542D01*
X154523457Y-80517193D01*
X154535000Y-80523857D01*
X154546542Y-80517193D01*
X154599193Y-80464542D01*
X154605857Y-80452999D01*
X154599193Y-80441457D01*
X154546542Y-80388806D01*
X154534999Y-80382142D01*
X154523457Y-80388806D01*
X154470806Y-80441457D01*
X154464142Y-80452999D01*
X153605857Y-80452999D01*
X153599193Y-80441457D01*
X153546542Y-80388806D01*
X153534999Y-80382142D01*
X153523457Y-80388806D01*
X153470806Y-80441457D01*
X153464142Y-80452999D01*
X152605857Y-80452999D01*
X152599193Y-80441457D01*
X152546542Y-80388806D01*
X152534999Y-80382142D01*
X152523457Y-80388806D01*
X152470806Y-80441457D01*
X152464142Y-80452999D01*
X151605857Y-80452999D01*
X151599193Y-80441457D01*
X151546542Y-80388806D01*
X151534999Y-80382142D01*
X151523457Y-80388806D01*
X151470806Y-80441457D01*
X151464142Y-80452999D01*
X130038499Y-80452999D01*
X130038499Y-79959923D01*
X150730718Y-79959923D01*
X150749343Y-80125225D01*
X150752421Y-80138712D01*
X150791964Y-80251722D01*
X150798363Y-80261300D01*
X150808290Y-80255444D01*
X151099193Y-79964542D01*
X151105857Y-79953000D01*
X151105856Y-79952999D01*
X151964142Y-79952999D01*
X151970806Y-79964542D01*
X152023457Y-80017193D01*
X152035000Y-80023857D01*
X152046542Y-80017193D01*
X152099193Y-79964542D01*
X152105857Y-79953000D01*
X152105856Y-79952999D01*
X152964142Y-79952999D01*
X152970806Y-79964542D01*
X153023457Y-80017193D01*
X153035000Y-80023857D01*
X153046542Y-80017193D01*
X153099193Y-79964542D01*
X153105857Y-79953000D01*
X153105856Y-79952999D01*
X153964142Y-79952999D01*
X153970806Y-79964542D01*
X154023457Y-80017193D01*
X154035000Y-80023857D01*
X154046542Y-80017193D01*
X154099193Y-79964542D01*
X154105857Y-79953000D01*
X154964142Y-79953000D01*
X154970806Y-79964542D01*
X155261710Y-80255446D01*
X155271634Y-80261300D01*
X155278035Y-80251721D01*
X155317576Y-80138717D01*
X155320657Y-80125219D01*
X155339282Y-79959923D01*
X155339282Y-79946077D01*
X155320657Y-79780780D01*
X155317576Y-79767282D01*
X155278034Y-79654277D01*
X155271634Y-79644698D01*
X155261710Y-79650552D01*
X154970807Y-79941456D01*
X154964142Y-79953000D01*
X154105857Y-79953000D01*
X154099193Y-79941457D01*
X154046542Y-79888806D01*
X154034999Y-79882142D01*
X154023457Y-79888806D01*
X153970806Y-79941457D01*
X153964142Y-79952999D01*
X153105856Y-79952999D01*
X153099193Y-79941457D01*
X153046542Y-79888806D01*
X153034999Y-79882142D01*
X153023457Y-79888806D01*
X152970806Y-79941457D01*
X152964142Y-79952999D01*
X152105856Y-79952999D01*
X152099193Y-79941457D01*
X152046542Y-79888806D01*
X152034999Y-79882142D01*
X152023457Y-79888806D01*
X151970806Y-79941457D01*
X151964142Y-79952999D01*
X151105856Y-79952999D01*
X151099192Y-79941456D01*
X150808289Y-79650553D01*
X150798363Y-79644698D01*
X150791964Y-79654276D01*
X150752421Y-79767287D01*
X150749343Y-79780774D01*
X150730718Y-79946077D01*
X150730718Y-79959923D01*
X130038499Y-79959923D01*
X130038499Y-79408128D01*
X130032091Y-79348517D01*
X129982801Y-79216363D01*
X151226698Y-79216363D01*
X151232553Y-79226289D01*
X151523456Y-79517192D01*
X151535000Y-79523857D01*
X151546542Y-79517193D01*
X151837444Y-79226290D01*
X151843300Y-79216363D01*
X152226698Y-79216363D01*
X152232553Y-79226289D01*
X152523456Y-79517192D01*
X152535000Y-79523857D01*
X152546542Y-79517193D01*
X152837444Y-79226290D01*
X152843300Y-79216363D01*
X153226698Y-79216363D01*
X153232553Y-79226289D01*
X153523456Y-79517192D01*
X153535000Y-79523857D01*
X153546542Y-79517193D01*
X153837444Y-79226290D01*
X153843300Y-79216363D01*
X154226698Y-79216363D01*
X154232553Y-79226289D01*
X154523456Y-79517192D01*
X154535000Y-79523857D01*
X154546542Y-79517193D01*
X154837444Y-79226290D01*
X154843300Y-79216363D01*
X154833722Y-79209964D01*
X154720712Y-79170421D01*
X154707225Y-79167343D01*
X154541923Y-79148718D01*
X154528077Y-79148718D01*
X154362774Y-79167343D01*
X154349287Y-79170421D01*
X154236276Y-79209964D01*
X154226698Y-79216363D01*
X153843300Y-79216363D01*
X153833722Y-79209964D01*
X153720712Y-79170421D01*
X153707225Y-79167343D01*
X153541923Y-79148718D01*
X153528077Y-79148718D01*
X153362774Y-79167343D01*
X153349287Y-79170421D01*
X153236276Y-79209964D01*
X153226698Y-79216363D01*
X152843300Y-79216363D01*
X152833722Y-79209964D01*
X152720712Y-79170421D01*
X152707225Y-79167343D01*
X152541923Y-79148718D01*
X152528077Y-79148718D01*
X152362774Y-79167343D01*
X152349287Y-79170421D01*
X152236276Y-79209964D01*
X152226698Y-79216363D01*
X151843300Y-79216363D01*
X151833722Y-79209964D01*
X151720712Y-79170421D01*
X151707225Y-79167343D01*
X151541923Y-79148718D01*
X151528077Y-79148718D01*
X151362774Y-79167343D01*
X151349287Y-79170421D01*
X151236276Y-79209964D01*
X151226698Y-79216363D01*
X129982801Y-79216363D01*
X129981796Y-79213669D01*
X129895546Y-79098454D01*
X129780331Y-79012204D01*
X129645483Y-78961909D01*
X129637770Y-78961079D01*
X129637767Y-78961079D01*
X129589180Y-78955855D01*
X129589169Y-78955854D01*
X129585873Y-78955500D01*
X129582550Y-78955500D01*
X127973439Y-78955500D01*
X127973420Y-78955500D01*
X127970128Y-78955501D01*
X127966850Y-78955853D01*
X127966838Y-78955854D01*
X127918231Y-78961079D01*
X127918225Y-78961080D01*
X127910517Y-78961909D01*
X127903252Y-78964618D01*
X127903246Y-78964620D01*
X127783980Y-79009104D01*
X127783978Y-79009104D01*
X127775669Y-79012204D01*
X127768572Y-79017516D01*
X127768568Y-79017519D01*
X127667550Y-79093141D01*
X127667546Y-79093144D01*
X127660454Y-79098454D01*
X127655144Y-79105546D01*
X127655141Y-79105550D01*
X127579519Y-79206568D01*
X127579516Y-79206572D01*
X127574204Y-79213669D01*
X127571104Y-79221978D01*
X127571104Y-79221980D01*
X127526620Y-79341247D01*
X127526619Y-79341250D01*
X127523909Y-79348517D01*
X127523079Y-79356227D01*
X127523079Y-79356232D01*
X127517855Y-79404819D01*
X127517854Y-79404831D01*
X127517500Y-79408127D01*
X127517500Y-79411448D01*
X127517500Y-79411449D01*
X127517500Y-81020560D01*
X127517500Y-81020578D01*
X127254000Y-81020578D01*
X127254000Y-78388183D01*
X128316756Y-78388183D01*
X128325651Y-78395322D01*
X128340501Y-78402247D01*
X128350635Y-78405935D01*
X128553135Y-78460196D01*
X128563766Y-78462070D01*
X128772605Y-78480341D01*
X128783395Y-78480341D01*
X128992233Y-78462070D01*
X129002864Y-78460196D01*
X129205362Y-78405936D01*
X129215503Y-78402244D01*
X129230346Y-78395322D01*
X129239242Y-78388183D01*
X129233325Y-78378432D01*
X128789542Y-77934649D01*
X128778000Y-77927985D01*
X128766456Y-77934650D01*
X128322673Y-78378432D01*
X128316756Y-78388183D01*
X127254000Y-78388183D01*
X127254000Y-77221395D01*
X127513659Y-77221395D01*
X127531929Y-77430233D01*
X127533803Y-77440864D01*
X127588066Y-77643371D01*
X127591748Y-77653489D01*
X127598677Y-77668348D01*
X127605815Y-77677242D01*
X127615567Y-77671324D01*
X128059350Y-77227542D01*
X128066014Y-77216000D01*
X129489985Y-77216000D01*
X129496649Y-77227542D01*
X129940432Y-77671325D01*
X129950183Y-77677242D01*
X129957322Y-77668346D01*
X129964244Y-77653503D01*
X129967936Y-77643362D01*
X130022196Y-77440864D01*
X130024070Y-77430233D01*
X130042341Y-77221395D01*
X130042341Y-77210605D01*
X130024070Y-77001766D01*
X130022196Y-76991135D01*
X129988665Y-76865998D01*
X161850686Y-76865998D01*
X161851158Y-76871393D01*
X161869436Y-77080319D01*
X161869437Y-77080326D01*
X161869909Y-77085718D01*
X161871308Y-77090939D01*
X161871310Y-77090950D01*
X161925594Y-77293539D01*
X161925596Y-77293546D01*
X161926994Y-77298761D01*
X162020206Y-77498656D01*
X162023306Y-77503084D01*
X162023310Y-77503090D01*
X162075751Y-77577983D01*
X162146713Y-77679327D01*
X162302672Y-77835286D01*
X162393007Y-77898539D01*
X162478908Y-77958688D01*
X162478911Y-77958689D01*
X162483343Y-77961793D01*
X162683238Y-78055005D01*
X162688458Y-78056403D01*
X162688459Y-78056404D01*
X162891048Y-78110688D01*
X162891050Y-78110688D01*
X162896281Y-78112090D01*
X163116001Y-78131313D01*
X163335721Y-78112090D01*
X163548764Y-78055005D01*
X163584843Y-78038181D01*
X165654756Y-78038181D01*
X165663651Y-78045320D01*
X165678501Y-78052245D01*
X165688635Y-78055933D01*
X165891135Y-78110194D01*
X165901766Y-78112068D01*
X166110605Y-78130339D01*
X166121395Y-78130339D01*
X166330233Y-78112068D01*
X166340864Y-78110194D01*
X166543362Y-78055934D01*
X166553503Y-78052242D01*
X166568346Y-78045320D01*
X166577242Y-78038181D01*
X166571325Y-78028430D01*
X166127542Y-77584647D01*
X166116000Y-77577983D01*
X166104456Y-77584648D01*
X165660673Y-78028430D01*
X165654756Y-78038181D01*
X163584843Y-78038181D01*
X163748659Y-77961793D01*
X163929330Y-77835286D01*
X164085289Y-77679327D01*
X164211796Y-77498656D01*
X164305008Y-77298761D01*
X164362093Y-77085718D01*
X164380844Y-76871393D01*
X164851659Y-76871393D01*
X164869929Y-77080231D01*
X164871803Y-77090862D01*
X164926066Y-77293369D01*
X164929748Y-77303487D01*
X164936677Y-77318346D01*
X164943815Y-77327240D01*
X164953567Y-77321322D01*
X165397350Y-76877540D01*
X165404014Y-76865998D01*
X166827985Y-76865998D01*
X166834649Y-76877540D01*
X167278432Y-77321323D01*
X167288183Y-77327240D01*
X167295322Y-77318344D01*
X167302244Y-77303501D01*
X167305936Y-77293360D01*
X167360196Y-77090862D01*
X167362070Y-77080231D01*
X167380341Y-76871393D01*
X167380341Y-76860603D01*
X167362070Y-76651764D01*
X167360196Y-76641133D01*
X167305935Y-76438633D01*
X167302247Y-76428499D01*
X167295322Y-76413649D01*
X167288183Y-76404754D01*
X167278432Y-76410671D01*
X166834650Y-76854454D01*
X166827985Y-76865998D01*
X165404014Y-76865998D01*
X165397350Y-76854455D01*
X164953567Y-76410672D01*
X164943815Y-76404755D01*
X164936675Y-76413652D01*
X164929753Y-76428497D01*
X164926064Y-76438633D01*
X164871803Y-76641133D01*
X164869929Y-76651764D01*
X164851659Y-76860603D01*
X164851659Y-76871393D01*
X164380844Y-76871393D01*
X164381316Y-76865998D01*
X164362093Y-76646278D01*
X164305008Y-76433235D01*
X164211796Y-76233341D01*
X164085289Y-76052669D01*
X163929330Y-75896710D01*
X163900955Y-75876841D01*
X163753093Y-75773307D01*
X163753087Y-75773303D01*
X163748659Y-75770203D01*
X163743754Y-75767915D01*
X163743751Y-75767914D01*
X163584839Y-75693813D01*
X165654757Y-75693813D01*
X165660674Y-75703565D01*
X166104457Y-76147348D01*
X166116000Y-76154012D01*
X166127542Y-76147348D01*
X166571324Y-75703565D01*
X166577242Y-75693813D01*
X166568348Y-75686675D01*
X166553489Y-75679746D01*
X166543371Y-75676064D01*
X166340864Y-75621801D01*
X166330233Y-75619927D01*
X166121395Y-75601657D01*
X166110605Y-75601657D01*
X165901766Y-75619927D01*
X165891135Y-75621801D01*
X165688635Y-75676062D01*
X165678499Y-75679751D01*
X165663654Y-75686673D01*
X165654757Y-75693813D01*
X163584839Y-75693813D01*
X163548764Y-75676991D01*
X163543549Y-75675593D01*
X163543542Y-75675591D01*
X163340953Y-75621307D01*
X163340942Y-75621305D01*
X163335721Y-75619906D01*
X163330329Y-75619434D01*
X163330322Y-75619433D01*
X163121396Y-75601155D01*
X163116001Y-75600683D01*
X163110606Y-75601155D01*
X162901679Y-75619433D01*
X162901670Y-75619434D01*
X162896281Y-75619906D01*
X162891060Y-75621304D01*
X162891048Y-75621307D01*
X162688465Y-75675590D01*
X162688460Y-75675591D01*
X162683238Y-75676991D01*
X162678342Y-75679273D01*
X162678331Y-75679278D01*
X162488254Y-75767913D01*
X162488250Y-75767915D01*
X162483344Y-75770203D01*
X162478911Y-75773306D01*
X162478904Y-75773311D01*
X162307107Y-75893604D01*
X162307102Y-75893607D01*
X162302672Y-75896710D01*
X162298848Y-75900533D01*
X162298842Y-75900539D01*
X162150542Y-76048839D01*
X162150536Y-76048845D01*
X162146713Y-76052669D01*
X162143610Y-76057099D01*
X162143607Y-76057104D01*
X162023314Y-76228901D01*
X162023309Y-76228908D01*
X162020206Y-76233341D01*
X162017918Y-76238247D01*
X162017916Y-76238251D01*
X161929281Y-76428328D01*
X161929276Y-76428339D01*
X161926994Y-76433235D01*
X161925594Y-76438457D01*
X161925593Y-76438462D01*
X161871310Y-76641045D01*
X161871307Y-76641057D01*
X161869909Y-76646278D01*
X161869437Y-76651667D01*
X161869436Y-76651676D01*
X161859640Y-76763651D01*
X161850686Y-76865998D01*
X129988665Y-76865998D01*
X129967935Y-76788635D01*
X129964247Y-76778501D01*
X129957322Y-76763651D01*
X129950183Y-76754756D01*
X129940432Y-76760673D01*
X129496650Y-77204456D01*
X129489985Y-77216000D01*
X128066014Y-77216000D01*
X128059350Y-77204457D01*
X127615567Y-76760674D01*
X127605815Y-76754757D01*
X127598675Y-76763654D01*
X127591753Y-76778499D01*
X127588064Y-76788635D01*
X127533803Y-76991135D01*
X127531929Y-77001766D01*
X127513659Y-77210605D01*
X127513659Y-77221395D01*
X127254000Y-77221395D01*
X127254000Y-76043815D01*
X128316757Y-76043815D01*
X128322674Y-76053567D01*
X128766457Y-76497350D01*
X128777999Y-76504014D01*
X128789542Y-76497350D01*
X129233324Y-76053567D01*
X129239242Y-76043815D01*
X129230348Y-76036677D01*
X129215489Y-76029748D01*
X129205371Y-76026066D01*
X129002864Y-75971803D01*
X128992233Y-75969929D01*
X128783395Y-75951659D01*
X128772605Y-75951659D01*
X128563766Y-75969929D01*
X128553135Y-75971803D01*
X128350635Y-76026064D01*
X128340499Y-76029753D01*
X128325654Y-76036675D01*
X128316757Y-76043815D01*
X127254000Y-76043815D01*
X127254000Y-73865999D01*
X161850686Y-73865999D01*
X161851158Y-73871394D01*
X161869436Y-74080320D01*
X161869437Y-74080327D01*
X161869909Y-74085719D01*
X161871308Y-74090940D01*
X161871310Y-74090951D01*
X161925594Y-74293540D01*
X161925596Y-74293547D01*
X161926994Y-74298762D01*
X162020206Y-74498657D01*
X162023306Y-74503085D01*
X162023310Y-74503091D01*
X162075751Y-74577984D01*
X162146713Y-74679328D01*
X162302672Y-74835287D01*
X162393007Y-74898540D01*
X162478908Y-74958689D01*
X162478911Y-74958690D01*
X162483343Y-74961794D01*
X162683238Y-75055006D01*
X162688458Y-75056404D01*
X162688459Y-75056405D01*
X162891048Y-75110689D01*
X162891050Y-75110689D01*
X162896281Y-75112091D01*
X163116001Y-75131314D01*
X163335721Y-75112091D01*
X163548764Y-75055006D01*
X163584843Y-75038182D01*
X165654756Y-75038182D01*
X165663651Y-75045321D01*
X165678501Y-75052246D01*
X165688635Y-75055934D01*
X165891135Y-75110195D01*
X165901766Y-75112069D01*
X166110605Y-75130340D01*
X166121395Y-75130340D01*
X166330233Y-75112069D01*
X166340864Y-75110195D01*
X166543362Y-75055935D01*
X166553503Y-75052243D01*
X166568346Y-75045321D01*
X166577242Y-75038182D01*
X166571325Y-75028431D01*
X166127542Y-74584648D01*
X166116000Y-74577984D01*
X166104456Y-74584649D01*
X165660673Y-75028431D01*
X165654756Y-75038182D01*
X163584843Y-75038182D01*
X163748659Y-74961794D01*
X163929330Y-74835287D01*
X164085289Y-74679328D01*
X164211796Y-74498657D01*
X164305008Y-74298762D01*
X164362093Y-74085719D01*
X164380844Y-73871394D01*
X164851659Y-73871394D01*
X164869929Y-74080232D01*
X164871803Y-74090863D01*
X164926066Y-74293370D01*
X164929748Y-74303488D01*
X164936677Y-74318347D01*
X164943815Y-74327241D01*
X164953567Y-74321323D01*
X165397350Y-73877541D01*
X165404014Y-73865999D01*
X166827985Y-73865999D01*
X166834649Y-73877541D01*
X167278432Y-74321324D01*
X167288183Y-74327241D01*
X167295322Y-74318345D01*
X167302244Y-74303502D01*
X167305936Y-74293361D01*
X167360196Y-74090863D01*
X167362070Y-74080232D01*
X167380341Y-73871394D01*
X167380341Y-73860604D01*
X167362070Y-73651765D01*
X167360196Y-73641134D01*
X167305935Y-73438634D01*
X167302247Y-73428500D01*
X167295322Y-73413650D01*
X167288183Y-73404755D01*
X167278432Y-73410672D01*
X166834650Y-73854455D01*
X166827985Y-73865999D01*
X165404014Y-73865999D01*
X165397350Y-73854456D01*
X164953567Y-73410673D01*
X164943815Y-73404756D01*
X164936675Y-73413653D01*
X164929753Y-73428498D01*
X164926064Y-73438634D01*
X164871803Y-73641134D01*
X164869929Y-73651765D01*
X164851659Y-73860604D01*
X164851659Y-73871394D01*
X164380844Y-73871394D01*
X164381316Y-73865999D01*
X164362093Y-73646279D01*
X164305008Y-73433236D01*
X164211796Y-73233342D01*
X164085289Y-73052670D01*
X163929330Y-72896711D01*
X163900955Y-72876842D01*
X163753093Y-72773308D01*
X163753087Y-72773304D01*
X163748659Y-72770204D01*
X163743754Y-72767916D01*
X163743751Y-72767915D01*
X163584839Y-72693814D01*
X165654757Y-72693814D01*
X165660674Y-72703566D01*
X166104457Y-73147349D01*
X166116000Y-73154013D01*
X166127542Y-73147349D01*
X166571324Y-72703566D01*
X166577242Y-72693814D01*
X166568348Y-72686676D01*
X166553489Y-72679747D01*
X166543371Y-72676065D01*
X166340864Y-72621802D01*
X166330233Y-72619928D01*
X166121395Y-72601658D01*
X166110605Y-72601658D01*
X165901766Y-72619928D01*
X165891135Y-72621802D01*
X165688635Y-72676063D01*
X165678499Y-72679752D01*
X165663654Y-72686674D01*
X165654757Y-72693814D01*
X163584839Y-72693814D01*
X163548764Y-72676992D01*
X163543549Y-72675594D01*
X163543542Y-72675592D01*
X163340953Y-72621308D01*
X163340942Y-72621306D01*
X163335721Y-72619907D01*
X163330329Y-72619435D01*
X163330322Y-72619434D01*
X163121396Y-72601156D01*
X163116001Y-72600684D01*
X163110606Y-72601156D01*
X162901679Y-72619434D01*
X162901670Y-72619435D01*
X162896281Y-72619907D01*
X162891060Y-72621305D01*
X162891048Y-72621308D01*
X162688465Y-72675591D01*
X162688460Y-72675592D01*
X162683238Y-72676992D01*
X162678342Y-72679274D01*
X162678331Y-72679279D01*
X162488254Y-72767914D01*
X162488250Y-72767916D01*
X162483344Y-72770204D01*
X162478911Y-72773307D01*
X162478904Y-72773312D01*
X162307107Y-72893605D01*
X162307102Y-72893608D01*
X162302672Y-72896711D01*
X162298848Y-72900534D01*
X162298842Y-72900540D01*
X162150542Y-73048840D01*
X162150536Y-73048846D01*
X162146713Y-73052670D01*
X162143610Y-73057100D01*
X162143607Y-73057105D01*
X162023314Y-73228902D01*
X162023309Y-73228909D01*
X162020206Y-73233342D01*
X162017918Y-73238248D01*
X162017916Y-73238252D01*
X161929281Y-73428329D01*
X161929276Y-73428340D01*
X161926994Y-73433236D01*
X161925594Y-73438458D01*
X161925593Y-73438463D01*
X161871310Y-73641046D01*
X161871307Y-73641058D01*
X161869909Y-73646279D01*
X161869437Y-73651668D01*
X161869436Y-73651677D01*
X161851696Y-73854455D01*
X161850686Y-73865999D01*
X127254000Y-73865999D01*
X127254000Y-71416578D01*
X127517500Y-71416578D01*
X127517501Y-71419872D01*
X127517853Y-71423150D01*
X127517854Y-71423161D01*
X127523079Y-71471768D01*
X127523080Y-71471773D01*
X127523909Y-71479483D01*
X127526619Y-71486749D01*
X127526620Y-71486753D01*
X127560217Y-71576831D01*
X127574204Y-71614331D01*
X127579518Y-71621430D01*
X127579519Y-71621431D01*
X127622861Y-71679329D01*
X127660454Y-71729546D01*
X127775669Y-71815796D01*
X127910517Y-71866091D01*
X127970127Y-71872500D01*
X129585872Y-71872499D01*
X129645483Y-71866091D01*
X129780331Y-71815796D01*
X129895546Y-71729546D01*
X129981796Y-71614331D01*
X130032091Y-71479483D01*
X130038500Y-71419873D01*
X130038500Y-70866000D01*
X161850686Y-70866000D01*
X161851158Y-70871395D01*
X161869436Y-71080321D01*
X161869437Y-71080328D01*
X161869909Y-71085720D01*
X161871308Y-71090941D01*
X161871310Y-71090952D01*
X161925594Y-71293541D01*
X161925596Y-71293548D01*
X161926994Y-71298763D01*
X161929280Y-71303665D01*
X162014654Y-71486753D01*
X162020206Y-71498658D01*
X162023306Y-71503086D01*
X162023310Y-71503092D01*
X162095381Y-71606019D01*
X162146713Y-71679329D01*
X162302672Y-71835288D01*
X162359657Y-71875189D01*
X162478908Y-71958690D01*
X162478911Y-71958691D01*
X162483343Y-71961795D01*
X162683238Y-72055007D01*
X162688458Y-72056405D01*
X162688459Y-72056406D01*
X162891048Y-72110690D01*
X162891050Y-72110690D01*
X162896281Y-72112092D01*
X163116001Y-72131315D01*
X163335721Y-72112092D01*
X163548764Y-72055007D01*
X163748659Y-71961795D01*
X163929330Y-71835288D01*
X164085289Y-71679329D01*
X164091459Y-71670518D01*
X164856000Y-71670518D01*
X164856353Y-71677114D01*
X164861573Y-71725667D01*
X164865111Y-71740641D01*
X164909547Y-71859777D01*
X164917962Y-71875189D01*
X164993498Y-71976092D01*
X165005907Y-71988501D01*
X165106810Y-72064037D01*
X165122222Y-72072452D01*
X165241358Y-72116888D01*
X165256332Y-72120426D01*
X165304885Y-72125646D01*
X165311482Y-72126000D01*
X165599674Y-72126000D01*
X165612549Y-72122549D01*
X165616000Y-72109674D01*
X166616000Y-72109674D01*
X166619450Y-72122549D01*
X166632326Y-72126000D01*
X166920518Y-72126000D01*
X166927114Y-72125646D01*
X166975667Y-72120426D01*
X166990641Y-72116888D01*
X167109777Y-72072452D01*
X167125189Y-72064037D01*
X167226092Y-71988501D01*
X167238501Y-71976092D01*
X167314037Y-71875189D01*
X167322452Y-71859777D01*
X167366888Y-71740641D01*
X167370426Y-71725667D01*
X167375646Y-71677114D01*
X167376000Y-71670518D01*
X167376000Y-71382326D01*
X167372549Y-71369450D01*
X167359674Y-71366000D01*
X166632326Y-71366000D01*
X166619450Y-71369450D01*
X166616000Y-71382326D01*
X166616000Y-72109674D01*
X165616000Y-72109674D01*
X165616000Y-71382326D01*
X165612549Y-71369450D01*
X165599674Y-71366000D01*
X164872326Y-71366000D01*
X164859450Y-71369450D01*
X164856000Y-71382326D01*
X164856000Y-71670518D01*
X164091459Y-71670518D01*
X164211796Y-71498658D01*
X164305008Y-71298763D01*
X164362093Y-71085720D01*
X164381316Y-70866000D01*
X164362093Y-70646280D01*
X164305008Y-70433237D01*
X164266042Y-70349674D01*
X164856000Y-70349674D01*
X164859450Y-70362549D01*
X164872326Y-70366000D01*
X165599674Y-70366000D01*
X165612549Y-70362549D01*
X165616000Y-70349674D01*
X166616000Y-70349674D01*
X166619450Y-70362549D01*
X166632326Y-70366000D01*
X167359674Y-70366000D01*
X167372549Y-70362549D01*
X167376000Y-70349674D01*
X167376000Y-70061482D01*
X167375646Y-70054885D01*
X167370426Y-70006332D01*
X167366888Y-69991358D01*
X167322452Y-69872222D01*
X167314037Y-69856810D01*
X167238501Y-69755907D01*
X167226092Y-69743498D01*
X167125189Y-69667962D01*
X167109777Y-69659547D01*
X166990641Y-69615111D01*
X166975667Y-69611573D01*
X166927114Y-69606353D01*
X166920518Y-69606000D01*
X166632326Y-69606000D01*
X166619450Y-69609450D01*
X166616000Y-69622326D01*
X166616000Y-70349674D01*
X165616000Y-70349674D01*
X165616000Y-69622326D01*
X165612549Y-69609450D01*
X165599674Y-69606000D01*
X165311482Y-69606000D01*
X165304885Y-69606353D01*
X165256332Y-69611573D01*
X165241358Y-69615111D01*
X165122222Y-69659547D01*
X165106810Y-69667962D01*
X165005907Y-69743498D01*
X164993498Y-69755907D01*
X164917962Y-69856810D01*
X164909547Y-69872222D01*
X164865111Y-69991358D01*
X164861573Y-70006332D01*
X164856353Y-70054885D01*
X164856000Y-70061482D01*
X164856000Y-70349674D01*
X164266042Y-70349674D01*
X164211796Y-70233343D01*
X164085289Y-70052671D01*
X163929330Y-69896712D01*
X163872344Y-69856810D01*
X163753093Y-69773309D01*
X163753087Y-69773305D01*
X163748659Y-69770205D01*
X163743754Y-69767917D01*
X163743751Y-69767916D01*
X163613760Y-69707301D01*
X163548764Y-69676993D01*
X163543549Y-69675595D01*
X163543542Y-69675593D01*
X163340953Y-69621309D01*
X163340942Y-69621307D01*
X163335721Y-69619908D01*
X163330329Y-69619436D01*
X163330322Y-69619435D01*
X163121396Y-69601157D01*
X163116001Y-69600685D01*
X163110606Y-69601157D01*
X162901679Y-69619435D01*
X162901670Y-69619436D01*
X162896281Y-69619908D01*
X162891060Y-69621306D01*
X162891048Y-69621309D01*
X162688465Y-69675592D01*
X162688460Y-69675593D01*
X162683238Y-69676993D01*
X162678342Y-69679275D01*
X162678331Y-69679280D01*
X162488254Y-69767915D01*
X162488250Y-69767917D01*
X162483344Y-69770205D01*
X162478911Y-69773308D01*
X162478904Y-69773313D01*
X162307107Y-69893606D01*
X162307102Y-69893609D01*
X162302672Y-69896712D01*
X162298848Y-69900535D01*
X162298842Y-69900541D01*
X162150542Y-70048841D01*
X162150536Y-70048847D01*
X162146713Y-70052671D01*
X162143610Y-70057101D01*
X162143607Y-70057106D01*
X162023314Y-70228903D01*
X162023309Y-70228910D01*
X162020206Y-70233343D01*
X162017918Y-70238249D01*
X162017916Y-70238253D01*
X161929281Y-70428330D01*
X161929276Y-70428341D01*
X161926994Y-70433237D01*
X161925594Y-70438459D01*
X161925593Y-70438464D01*
X161871310Y-70641047D01*
X161871307Y-70641059D01*
X161869909Y-70646280D01*
X161869437Y-70651669D01*
X161869436Y-70651678D01*
X161851158Y-70860605D01*
X161850686Y-70866000D01*
X130038500Y-70866000D01*
X130038499Y-69804128D01*
X130032091Y-69744517D01*
X129981796Y-69609669D01*
X129895546Y-69494454D01*
X129780331Y-69408204D01*
X129645483Y-69357909D01*
X129637770Y-69357079D01*
X129637767Y-69357079D01*
X129589180Y-69351855D01*
X129589169Y-69351854D01*
X129585873Y-69351500D01*
X129582550Y-69351500D01*
X127973439Y-69351500D01*
X127973420Y-69351500D01*
X127970128Y-69351501D01*
X127966850Y-69351853D01*
X127966838Y-69351854D01*
X127918231Y-69357079D01*
X127918225Y-69357080D01*
X127910517Y-69357909D01*
X127903252Y-69360618D01*
X127903246Y-69360620D01*
X127783980Y-69405104D01*
X127783978Y-69405104D01*
X127775669Y-69408204D01*
X127768572Y-69413516D01*
X127768568Y-69413519D01*
X127667550Y-69489141D01*
X127667546Y-69489144D01*
X127660454Y-69494454D01*
X127655144Y-69501546D01*
X127655141Y-69501550D01*
X127579519Y-69602568D01*
X127579516Y-69602572D01*
X127574204Y-69609669D01*
X127571104Y-69617978D01*
X127571104Y-69617980D01*
X127526620Y-69737247D01*
X127526619Y-69737250D01*
X127523909Y-69744517D01*
X127523079Y-69752227D01*
X127523079Y-69752232D01*
X127517855Y-69800819D01*
X127517854Y-69800831D01*
X127517500Y-69804127D01*
X127517500Y-69807448D01*
X127517500Y-69807449D01*
X127517500Y-71416560D01*
X127517500Y-71416578D01*
X127254000Y-71416578D01*
X127254000Y-68784183D01*
X128316756Y-68784183D01*
X128325651Y-68791322D01*
X128340501Y-68798247D01*
X128350635Y-68801935D01*
X128553135Y-68856196D01*
X128563766Y-68858070D01*
X128772605Y-68876341D01*
X128783395Y-68876341D01*
X128992233Y-68858070D01*
X129002864Y-68856196D01*
X129205362Y-68801936D01*
X129215503Y-68798244D01*
X129230346Y-68791322D01*
X129239242Y-68784183D01*
X129233325Y-68774432D01*
X128789542Y-68330649D01*
X128778000Y-68323985D01*
X128766456Y-68330650D01*
X128322673Y-68774432D01*
X128316756Y-68784183D01*
X127254000Y-68784183D01*
X127254000Y-67617395D01*
X127513659Y-67617395D01*
X127531929Y-67826233D01*
X127533803Y-67836864D01*
X127588066Y-68039371D01*
X127591748Y-68049489D01*
X127598677Y-68064348D01*
X127605815Y-68073242D01*
X127615567Y-68067324D01*
X128059350Y-67623542D01*
X128066014Y-67612000D01*
X129489985Y-67612000D01*
X129496649Y-67623542D01*
X129940432Y-68067325D01*
X129950183Y-68073242D01*
X129957322Y-68064346D01*
X129964244Y-68049503D01*
X129967936Y-68039362D01*
X130022196Y-67836864D01*
X130024070Y-67826233D01*
X130042341Y-67617395D01*
X130042341Y-67606605D01*
X130024070Y-67397766D01*
X130022196Y-67387135D01*
X129967935Y-67184635D01*
X129964247Y-67174501D01*
X129957322Y-67159651D01*
X129950183Y-67150756D01*
X129940432Y-67156673D01*
X129496650Y-67600456D01*
X129489985Y-67612000D01*
X128066014Y-67612000D01*
X128059350Y-67600457D01*
X127615567Y-67156674D01*
X127605815Y-67150757D01*
X127598675Y-67159654D01*
X127591753Y-67174499D01*
X127588064Y-67184635D01*
X127533803Y-67387135D01*
X127531929Y-67397766D01*
X127513659Y-67606605D01*
X127513659Y-67617395D01*
X127254000Y-67617395D01*
X127254000Y-66439815D01*
X128316757Y-66439815D01*
X128322674Y-66449567D01*
X128766457Y-66893350D01*
X128778000Y-66900014D01*
X128789542Y-66893350D01*
X129233324Y-66449567D01*
X129239242Y-66439815D01*
X129230348Y-66432677D01*
X129215489Y-66425748D01*
X129205371Y-66422066D01*
X129002864Y-66367803D01*
X128992233Y-66365929D01*
X128783395Y-66347659D01*
X128772605Y-66347659D01*
X128563766Y-66365929D01*
X128553135Y-66367803D01*
X128350635Y-66422064D01*
X128340499Y-66425753D01*
X128325654Y-66432675D01*
X128316757Y-66439815D01*
X127254000Y-66439815D01*
X127254000Y-66204578D01*
X161849500Y-66204578D01*
X161849501Y-66207872D01*
X161849853Y-66211150D01*
X161849854Y-66211161D01*
X161855079Y-66259768D01*
X161855080Y-66259773D01*
X161855909Y-66267483D01*
X161858619Y-66274749D01*
X161858620Y-66274753D01*
X161885813Y-66347659D01*
X161906204Y-66402331D01*
X161911518Y-66409430D01*
X161911519Y-66409431D01*
X161934264Y-66439815D01*
X161992454Y-66517546D01*
X162107669Y-66603796D01*
X162242517Y-66654091D01*
X162302127Y-66660500D01*
X163917872Y-66660499D01*
X163977483Y-66654091D01*
X164112331Y-66603796D01*
X164154560Y-66572183D01*
X165648756Y-66572183D01*
X165657651Y-66579322D01*
X165672501Y-66586247D01*
X165682635Y-66589935D01*
X165885135Y-66644196D01*
X165895766Y-66646070D01*
X166104605Y-66664341D01*
X166115395Y-66664341D01*
X166324233Y-66646070D01*
X166334864Y-66644196D01*
X166537362Y-66589936D01*
X166547503Y-66586244D01*
X166562346Y-66579322D01*
X166571242Y-66572183D01*
X166565325Y-66562432D01*
X166121542Y-66118649D01*
X166110000Y-66111985D01*
X166098456Y-66118650D01*
X165654673Y-66562432D01*
X165648756Y-66572183D01*
X164154560Y-66572183D01*
X164227546Y-66517546D01*
X164313796Y-66402331D01*
X164364091Y-66267483D01*
X164370500Y-66207873D01*
X164370500Y-65405395D01*
X164845659Y-65405395D01*
X164863929Y-65614233D01*
X164865803Y-65624864D01*
X164920066Y-65827371D01*
X164923748Y-65837489D01*
X164930677Y-65852348D01*
X164937815Y-65861242D01*
X164947567Y-65855324D01*
X165391350Y-65411542D01*
X165398014Y-65400000D01*
X166821985Y-65400000D01*
X166828649Y-65411542D01*
X167272432Y-65855325D01*
X167282183Y-65861242D01*
X167289322Y-65852346D01*
X167296244Y-65837503D01*
X167299936Y-65827362D01*
X167354196Y-65624864D01*
X167356070Y-65614233D01*
X167374341Y-65405395D01*
X167374341Y-65394605D01*
X167356070Y-65185766D01*
X167354196Y-65175135D01*
X167299935Y-64972635D01*
X167296247Y-64962501D01*
X167289322Y-64947651D01*
X167282183Y-64938756D01*
X167272432Y-64944673D01*
X166828650Y-65388456D01*
X166821985Y-65400000D01*
X165398014Y-65400000D01*
X165391350Y-65388457D01*
X164947567Y-64944674D01*
X164937815Y-64938757D01*
X164930675Y-64947654D01*
X164923753Y-64962499D01*
X164920064Y-64972635D01*
X164865803Y-65175135D01*
X164863929Y-65185766D01*
X164845659Y-65394605D01*
X164845659Y-65405395D01*
X164370500Y-65405395D01*
X164370499Y-64592128D01*
X164364091Y-64532517D01*
X164313796Y-64397669D01*
X164227546Y-64282454D01*
X164154557Y-64227815D01*
X165648757Y-64227815D01*
X165654674Y-64237567D01*
X166098457Y-64681350D01*
X166110000Y-64688014D01*
X166121542Y-64681350D01*
X166565324Y-64237567D01*
X166571242Y-64227815D01*
X166562348Y-64220677D01*
X166547489Y-64213748D01*
X166537371Y-64210066D01*
X166334864Y-64155803D01*
X166324233Y-64153929D01*
X166115395Y-64135659D01*
X166104605Y-64135659D01*
X165895766Y-64153929D01*
X165885135Y-64155803D01*
X165682635Y-64210064D01*
X165672499Y-64213753D01*
X165657654Y-64220675D01*
X165648757Y-64227815D01*
X164154557Y-64227815D01*
X164135773Y-64213753D01*
X164119431Y-64201519D01*
X164119430Y-64201518D01*
X164112331Y-64196204D01*
X163977483Y-64145909D01*
X163969770Y-64145079D01*
X163969767Y-64145079D01*
X163921180Y-64139855D01*
X163921169Y-64139854D01*
X163917873Y-64139500D01*
X163914550Y-64139500D01*
X162305439Y-64139500D01*
X162305420Y-64139500D01*
X162302128Y-64139501D01*
X162298850Y-64139853D01*
X162298838Y-64139854D01*
X162250231Y-64145079D01*
X162250225Y-64145080D01*
X162242517Y-64145909D01*
X162235252Y-64148618D01*
X162235246Y-64148620D01*
X162115980Y-64193104D01*
X162115978Y-64193104D01*
X162107669Y-64196204D01*
X162100572Y-64201516D01*
X162100568Y-64201519D01*
X161999550Y-64277141D01*
X161999546Y-64277144D01*
X161992454Y-64282454D01*
X161987144Y-64289546D01*
X161987141Y-64289550D01*
X161911519Y-64390568D01*
X161911516Y-64390572D01*
X161906204Y-64397669D01*
X161903104Y-64405978D01*
X161903104Y-64405980D01*
X161858620Y-64525247D01*
X161858619Y-64525250D01*
X161855909Y-64532517D01*
X161855079Y-64540227D01*
X161855079Y-64540232D01*
X161849855Y-64588819D01*
X161849854Y-64588831D01*
X161849500Y-64592127D01*
X161849500Y-64595448D01*
X161849500Y-64595449D01*
X161849500Y-66204560D01*
X161849500Y-66204578D01*
X127254000Y-66204578D01*
X127254000Y-64981634D01*
X133991698Y-64981634D01*
X134001277Y-64988034D01*
X134114282Y-65027576D01*
X134127780Y-65030657D01*
X134293077Y-65049282D01*
X134306923Y-65049282D01*
X134472219Y-65030657D01*
X134485717Y-65027576D01*
X134598721Y-64988035D01*
X134608300Y-64981634D01*
X134602446Y-64971710D01*
X134311542Y-64680806D01*
X134300000Y-64674142D01*
X134288456Y-64680807D01*
X133997552Y-64971710D01*
X133991698Y-64981634D01*
X127254000Y-64981634D01*
X127254000Y-64251923D01*
X133495718Y-64251923D01*
X133514343Y-64417225D01*
X133517421Y-64430712D01*
X133556964Y-64543722D01*
X133563363Y-64553300D01*
X133573290Y-64547444D01*
X133864193Y-64256542D01*
X133870857Y-64245000D01*
X134729142Y-64245000D01*
X134735806Y-64256542D01*
X135026710Y-64547446D01*
X135036634Y-64553300D01*
X135043035Y-64543721D01*
X135082576Y-64430717D01*
X135085657Y-64417219D01*
X135104282Y-64251923D01*
X135104282Y-64238077D01*
X135085657Y-64072780D01*
X135082576Y-64059282D01*
X135043034Y-63946277D01*
X135036634Y-63936698D01*
X135026710Y-63942552D01*
X134735807Y-64233456D01*
X134729142Y-64245000D01*
X133870857Y-64245000D01*
X133864192Y-64233456D01*
X133573289Y-63942553D01*
X133563363Y-63936698D01*
X133556964Y-63946276D01*
X133517421Y-64059287D01*
X133514343Y-64072774D01*
X133495718Y-64238077D01*
X133495718Y-64251923D01*
X127254000Y-64251923D01*
X127254000Y-63508363D01*
X133991698Y-63508363D01*
X133997553Y-63518289D01*
X134288456Y-63809192D01*
X134300000Y-63815857D01*
X134311542Y-63809193D01*
X134602444Y-63518290D01*
X134608300Y-63508363D01*
X134598722Y-63501964D01*
X134485712Y-63462421D01*
X134472225Y-63459343D01*
X134306923Y-63440718D01*
X134293077Y-63440718D01*
X134127774Y-63459343D01*
X134114287Y-63462421D01*
X134001276Y-63501964D01*
X133991698Y-63508363D01*
X127254000Y-63508363D01*
X127254000Y-63455481D01*
X127254195Y-63448529D01*
X127256286Y-63411283D01*
X127272473Y-63123048D01*
X127274027Y-63109253D01*
X127328049Y-62791299D01*
X127331143Y-62777747D01*
X127397479Y-62547493D01*
X127420424Y-62467847D01*
X127425016Y-62454727D01*
X127454559Y-62383403D01*
X127548430Y-62156775D01*
X127554452Y-62144269D01*
X127710467Y-61861983D01*
X127717854Y-61850228D01*
X127904482Y-61587201D01*
X127913128Y-61576358D01*
X128128049Y-61335861D01*
X128137861Y-61326049D01*
X128378358Y-61111128D01*
X128389201Y-61102482D01*
X128652228Y-60915854D01*
X128663983Y-60908467D01*
X128946269Y-60752452D01*
X128958775Y-60746430D01*
X129256724Y-60623016D01*
X129269847Y-60618424D01*
X129579753Y-60529141D01*
X129593299Y-60526049D01*
X129911253Y-60472027D01*
X129925048Y-60470473D01*
X130213283Y-60454286D01*
X130250529Y-60452195D01*
X130257481Y-60452000D01*
X162809983Y-60452000D01*
X162865864Y-60465305D01*
G37*
%TD.AperFunction*%
%TD*%
M02*
