%TF.GenerationSoftware,KiCad,Pcbnew,(7.0.0)*%
%TF.CreationDate,2023-03-07T20:41:21-05:00*%
%TF.ProjectId,Power Distribution Board,506f7765-7220-4446-9973-747269627574,rev?*%
%TF.SameCoordinates,Original*%
%TF.FileFunction,Soldermask,Top*%
%TF.FilePolarity,Negative*%
%FSLAX46Y46*%
G04 Gerber Fmt 4.6, Leading zero omitted, Abs format (unit mm)*
G04 Created by KiCad (PCBNEW (7.0.0)) date 2023-03-07 20:41:21*
%MOMM*%
%LPD*%
G01*
G04 APERTURE LIST*
G04 Aperture macros list*
%AMRoundRect*
0 Rectangle with rounded corners*
0 $1 Rounding radius*
0 $2 $3 $4 $5 $6 $7 $8 $9 X,Y pos of 4 corners*
0 Add a 4 corners polygon primitive as box body*
4,1,4,$2,$3,$4,$5,$6,$7,$8,$9,$2,$3,0*
0 Add four circle primitives for the rounded corners*
1,1,$1+$1,$2,$3*
1,1,$1+$1,$4,$5*
1,1,$1+$1,$6,$7*
1,1,$1+$1,$8,$9*
0 Add four rect primitives between the rounded corners*
20,1,$1+$1,$2,$3,$4,$5,0*
20,1,$1+$1,$4,$5,$6,$7,0*
20,1,$1+$1,$6,$7,$8,$9,0*
20,1,$1+$1,$8,$9,$2,$3,0*%
G04 Aperture macros list end*
%ADD10C,2.600000*%
%ADD11C,3.800000*%
%ADD12R,1.520000X1.520000*%
%ADD13C,1.520000*%
%ADD14C,3.000000*%
%ADD15RoundRect,0.088500X0.206500X-0.516500X0.206500X0.516500X-0.206500X0.516500X-0.206500X-0.516500X0*%
%ADD16C,0.600000*%
%ADD17R,2.000000X0.750000*%
%ADD18R,5.400000X2.900000*%
%ADD19RoundRect,0.041300X0.253700X-0.943700X0.253700X0.943700X-0.253700X0.943700X-0.253700X-0.943700X0*%
%ADD20R,4.000000X2.000000*%
%ADD21RoundRect,0.250000X-0.450000X0.350000X-0.450000X-0.350000X0.450000X-0.350000X0.450000X0.350000X0*%
%ADD22R,1.550000X2.330000*%
%ADD23RoundRect,0.075000X0.212500X0.075000X-0.212500X0.075000X-0.212500X-0.075000X0.212500X-0.075000X0*%
%ADD24RoundRect,0.075000X-0.212500X-0.075000X0.212500X-0.075000X0.212500X0.075000X-0.212500X0.075000X0*%
%ADD25RoundRect,0.075000X0.075000X-0.212500X0.075000X0.212500X-0.075000X0.212500X-0.075000X-0.212500X0*%
%ADD26RoundRect,0.075000X-0.075000X0.212500X-0.075000X-0.212500X0.075000X-0.212500X0.075000X0.212500X0*%
%ADD27RoundRect,0.250000X-0.875000X-1.025000X0.875000X-1.025000X0.875000X1.025000X-0.875000X1.025000X0*%
%ADD28RoundRect,0.250001X0.799999X-1.999999X0.799999X1.999999X-0.799999X1.999999X-0.799999X-1.999999X0*%
G04 APERTURE END LIST*
D10*
%TO.C,REF\u002A\u002A*%
X171094400Y-87274400D03*
D11*
X171094400Y-87274400D03*
%TD*%
D10*
%TO.C,REF\u002A\u002A*%
X171094400Y-60452000D03*
D11*
X171094400Y-60452000D03*
%TD*%
D10*
%TO.C,REF\u002A\u002A*%
X123850400Y-60452000D03*
D11*
X123850400Y-60452000D03*
%TD*%
D12*
%TO.C,J3*%
X128777999Y-70611999D03*
D13*
X128778000Y-67612000D03*
D14*
X124478000Y-69112000D03*
%TD*%
D11*
%TO.C,REF\u002A\u002A*%
X123799600Y-87274400D03*
D10*
X123799600Y-87274400D03*
%TD*%
D15*
%TO.C,U2*%
X133350000Y-65500000D03*
X134300000Y-65500000D03*
D16*
X134300000Y-64245000D03*
D17*
X134299999Y-64244999D03*
D15*
X135250000Y-65500000D03*
X135250000Y-62990000D03*
X133350000Y-62990000D03*
%TD*%
D18*
%TO.C,L1*%
X139445999Y-87169999D03*
X139445999Y-77469999D03*
%TD*%
D19*
%TO.C,U1*%
X151130000Y-77978000D03*
X152400000Y-77978000D03*
X153670000Y-77978000D03*
D16*
X154535000Y-79953000D03*
X153535000Y-79953000D03*
X152535000Y-79953000D03*
X151535000Y-79953000D03*
D20*
X153034999Y-80452999D03*
D16*
X154535000Y-80953000D03*
X153535000Y-80953000D03*
X152535000Y-80953000D03*
X151535000Y-80953000D03*
D19*
X154940000Y-77978000D03*
X154940000Y-82928000D03*
X153670000Y-82928000D03*
X152400000Y-82928000D03*
X151130000Y-82928000D03*
%TD*%
D21*
%TO.C,R2*%
X158750000Y-78105000D03*
X158750000Y-80105000D03*
%TD*%
%TO.C,R1*%
X158750000Y-73870000D03*
X158750000Y-75870000D03*
%TD*%
D14*
%TO.C,J5*%
X164620000Y-86640000D03*
D13*
X163120000Y-82340000D03*
D12*
X166119999Y-82339999D03*
%TD*%
%TO.C,J4*%
X163109999Y-65399999D03*
D13*
X166110000Y-65400000D03*
D14*
X164610000Y-61100000D03*
%TD*%
%TO.C,J2*%
X124478000Y-78716000D03*
D13*
X128778000Y-77216000D03*
D12*
X128777999Y-80215999D03*
%TD*%
%TO.C,J1*%
X166115999Y-70865999D03*
D13*
X166116000Y-73865999D03*
X166116000Y-76865998D03*
X163116001Y-70866000D03*
X163116001Y-73865999D03*
X163116001Y-76865998D03*
D14*
X170415999Y-73865999D03*
%TD*%
D22*
%TO.C,D1*%
X148103999Y-73202499D03*
X148103999Y-77472499D03*
%TD*%
D23*
%TO.C,C_IN4*%
X131674000Y-62992000D03*
X130999000Y-62992000D03*
%TD*%
D24*
%TO.C,C_IN3*%
X132672500Y-67564000D03*
X133347500Y-67564000D03*
%TD*%
D25*
%TO.C,C_IN2*%
X149606000Y-80112500D03*
X149606000Y-80787500D03*
%TD*%
D26*
%TO.C,C_IN1*%
X152400000Y-85115000D03*
X152400000Y-85790000D03*
%TD*%
D27*
%TO.C,C2*%
X140741000Y-71374000D03*
X134341000Y-71374000D03*
%TD*%
D28*
%TO.C,C1*%
X155090000Y-65000000D03*
X155090000Y-72200000D03*
%TD*%
M02*
