<?xml version="1.0" encoding="UTF-8" standalone="no" ?>
<!DOCTYPE svg PUBLIC "-//W3C//DTD SVG 1.1//EN" "http://www.w3.org/Graphics/SVG/1.1/DTD/svg11.dtd">
<svg xmlns="http://www.w3.org/2000/svg" xmlns:xlink="http://www.w3.org/1999/xlink" version="1.1" width="1920" height="1920" viewBox="0 0 500 500" xml:space="preserve">
<desc>Created with Fabric.js 4.6.0</desc>
<defs>
</defs>
<g transform="matrix(1 0 0 1 245 50)" id="EWl-avR2fzfa9zyif7Vb9"  >
<g style="" vector-effect="non-scaling-stroke"   >
		<g transform="matrix(1.25 0 0 -1.25 15 0)" id="88iSCcZ5A-5wLqrSljgp7"  >
<path style="stroke: none; stroke-width: 0; stroke-dasharray: none; stroke-linecap: butt; stroke-dashoffset: 0; stroke-linejoin: miter; stroke-miterlimit: 4; fill: rgb(0,0,0); fill-rule: nonzero; opacity: 1;" vector-effect="non-scaling-stroke"  transform=" translate(-40, -40)" d="M 60 40 L 80 80 L 40 80 L 0 80 L 20 40 L 40 0 L 60 40 z" stroke-linecap="round" />
</g>
		<g transform="matrix(1.25 0 0 1.25 75 0)" id="8ajxGXz9IClridT4dKCpC"  >
<path style="stroke: none; stroke-width: 0; stroke-dasharray: none; stroke-linecap: butt; stroke-dashoffset: 0; stroke-linejoin: miter; stroke-miterlimit: 4; fill: rgb(0,0,0); fill-rule: nonzero; opacity: 1;" vector-effect="non-scaling-stroke"  transform=" translate(-40, -40)" d="M 60 40 L 80 80 L 40 80 L 0 80 L 20 40 L 40 0 L 60 40 z" stroke-linecap="round" />
</g>
		<g transform="matrix(0.62 0 0 3.12 -165 0)" id="NiZdi-z-pgVnV95ceuU7B"  >
<path style="stroke: rgb(100,243,145); stroke-width: 0; stroke-dasharray: none; stroke-linecap: butt; stroke-dashoffset: 0; stroke-linejoin: miter; stroke-miterlimit: 4; fill: rgb(0,0,0); fill-rule: nonzero; opacity: 1;" vector-effect="non-scaling-stroke"  transform=" translate(0, 0)" d="M -16.02177 -16.02177 L 16.02177 -16.02177 L 16.02177 16.02177 L -16.02177 16.02177 z" stroke-linecap="round" />
</g>
		<g transform="matrix(0.62 0 0 3.12 145 0)" id="Il6rJ67FgI93iOpGYIzjA"  >
<path style="stroke: rgb(100,243,145); stroke-width: 0; stroke-dasharray: none; stroke-linecap: butt; stroke-dashoffset: 0; stroke-linejoin: miter; stroke-miterlimit: 4; fill: rgb(0,0,0); fill-rule: nonzero; opacity: 1;" vector-effect="non-scaling-stroke"  transform=" translate(0, 0)" d="M -16.02177 -16.02177 L 16.02177 -16.02177 L 16.02177 16.02177 L -16.02177 16.02177 z" stroke-linecap="round" />
</g>
		<g transform="matrix(1.87 0 0 0.62 -145 40)" id="bCH5_zePDe35hgKYNCq0O"  >
<path style="stroke: rgb(100,243,145); stroke-width: 0; stroke-dasharray: none; stroke-linecap: butt; stroke-dashoffset: 0; stroke-linejoin: miter; stroke-miterlimit: 4; fill: rgb(0,0,0); fill-rule: nonzero; opacity: 1;" vector-effect="non-scaling-stroke"  transform=" translate(0, 0)" d="M -16.02177 -16.02177 L 16.02177 -16.02177 L 16.02177 16.02177 L -16.02177 16.02177 z" stroke-linecap="round" />
</g>
		<g transform="matrix(1.87 0 0 0.62 145 -40)" id="e4DepI6EaGT9hZE59k2iT"  >
<path style="stroke: rgb(100,243,145); stroke-width: 0; stroke-dasharray: none; stroke-linecap: butt; stroke-dashoffset: 0; stroke-linejoin: miter; stroke-miterlimit: 4; fill: rgb(0,0,0); fill-rule: nonzero; opacity: 1;" vector-effect="non-scaling-stroke"  transform=" translate(0, 0)" d="M -16.02177 -16.02177 L 16.02177 -16.02177 L 16.02177 16.02177 L -16.02177 16.02177 z" stroke-linecap="round" />
</g>
		<g transform="matrix(1 0 0 1 -215 0)" id="xoL3rcSzZu2jlH_qbVgJI"  >
<g style="" vector-effect="non-scaling-stroke"   >
		<g transform="matrix(0.62 0 0 3.12 -20 0)" id="jBK3iy3gCK0RqTfpR2ASo"  >
<path style="stroke: rgb(100,243,145); stroke-width: 0; stroke-dasharray: none; stroke-linecap: butt; stroke-dashoffset: 0; stroke-linejoin: miter; stroke-miterlimit: 4; fill: rgb(0,0,0); fill-rule: nonzero; opacity: 1;" vector-effect="non-scaling-stroke"  transform=" translate(0, 0)" d="M -16.02177 -16.02177 L 16.02177 -16.02177 L 16.02177 16.02177 L -16.02177 16.02177 z" stroke-linecap="round" />
</g>
		<g transform="matrix(1.87 0 0 0.62 0 -40)" id="LXsEaZmAc_E49hbpFW3Hz"  >
<path style="stroke: rgb(100,243,145); stroke-width: 0; stroke-dasharray: none; stroke-linecap: butt; stroke-dashoffset: 0; stroke-linejoin: miter; stroke-miterlimit: 4; fill: rgb(0,0,0); fill-rule: nonzero; opacity: 1;" vector-effect="non-scaling-stroke"  transform=" translate(0, 0)" d="M -16.02177 -16.02177 L 16.02177 -16.02177 L 16.02177 16.02177 L -16.02177 16.02177 z" stroke-linecap="round" />
</g>
		<g transform="matrix(1.87 0 0 0.62 0 40)" id="N7Gk1F2dnNsJ9SbIyPOtr"  >
<path style="stroke: rgb(100,243,145); stroke-width: 0; stroke-dasharray: none; stroke-linecap: butt; stroke-dashoffset: 0; stroke-linejoin: miter; stroke-miterlimit: 4; fill: rgb(0,0,0); fill-rule: nonzero; opacity: 1;" vector-effect="non-scaling-stroke"  transform=" translate(0, 0)" d="M -16.02177 -16.02177 L 16.02177 -16.02177 L 16.02177 16.02177 L -16.02177 16.02177 z" stroke-linecap="round" />
</g>
		<g transform="matrix(1.87 0 0 0.62 0 0)" id="DglSwdPfz2fSi_CBESW9b"  >
<path style="stroke: rgb(100,243,145); stroke-width: 0; stroke-dasharray: none; stroke-linecap: butt; stroke-dashoffset: 0; stroke-linejoin: miter; stroke-miterlimit: 4; fill: rgb(0,0,0); fill-rule: nonzero; opacity: 1;" vector-effect="non-scaling-stroke"  transform=" translate(0, 0)" d="M -16.02177 -16.02177 L 16.02177 -16.02177 L 16.02177 16.02177 L -16.02177 16.02177 z" stroke-linecap="round" />
</g>
</g>
</g>
		<g transform="matrix(1 0 0 1 -75 0)" id="oFTINWf9fWPFLfyQH_nWS"  >
<g style="" vector-effect="non-scaling-stroke"   >
		<g transform="matrix(0.62 0 0 3.12 -20 0)" id="cc1DpHLHrAR1yUsx2ihp8"  >
<path style="stroke: rgb(100,243,145); stroke-width: 0; stroke-dasharray: none; stroke-linecap: butt; stroke-dashoffset: 0; stroke-linejoin: miter; stroke-miterlimit: 4; fill: rgb(0,0,0); fill-rule: nonzero; opacity: 1;" vector-effect="non-scaling-stroke"  transform=" translate(0, 0)" d="M -16.02177 -16.02177 L 16.02177 -16.02177 L 16.02177 16.02177 L -16.02177 16.02177 z" stroke-linecap="round" />
</g>
		<g transform="matrix(1.87 0 0 0.62 0 -40)" id="YwF_ghAX9nE3D14YRO4HH"  >
<path style="stroke: rgb(100,243,145); stroke-width: 0; stroke-dasharray: none; stroke-linecap: butt; stroke-dashoffset: 0; stroke-linejoin: miter; stroke-miterlimit: 4; fill: rgb(0,0,0); fill-rule: nonzero; opacity: 1;" vector-effect="non-scaling-stroke"  transform=" translate(0, 0)" d="M -16.02177 -16.02177 L 16.02177 -16.02177 L 16.02177 16.02177 L -16.02177 16.02177 z" stroke-linecap="round" />
</g>
		<g transform="matrix(1.87 0 0 0.62 0 40)" id="rjyk7RVgZ63O6K9o1u2qd"  >
<path style="stroke: rgb(100,243,145); stroke-width: 0; stroke-dasharray: none; stroke-linecap: butt; stroke-dashoffset: 0; stroke-linejoin: miter; stroke-miterlimit: 4; fill: rgb(0,0,0); fill-rule: nonzero; opacity: 1;" vector-effect="non-scaling-stroke"  transform=" translate(0, 0)" d="M -16.02177 -16.02177 L 16.02177 -16.02177 L 16.02177 16.02177 L -16.02177 16.02177 z" stroke-linecap="round" />
</g>
		<g transform="matrix(1.87 0 0 0.62 0 0)" id="Y9pLm6P6kAaAq0o9ofXar"  >
<path style="stroke: rgb(100,243,145); stroke-width: 0; stroke-dasharray: none; stroke-linecap: butt; stroke-dashoffset: 0; stroke-linejoin: miter; stroke-miterlimit: 4; fill: rgb(0,0,0); fill-rule: nonzero; opacity: 1;" vector-effect="non-scaling-stroke"  transform=" translate(0, 0)" d="M -16.02177 -16.02177 L 16.02177 -16.02177 L 16.02177 16.02177 L -16.02177 16.02177 z" stroke-linecap="round" />
</g>
</g>
</g>
		<g transform="matrix(1 0 0 1 215 0)" id="_-wum-ia_Fq24-YGN3P8S"  >
<g style="" vector-effect="non-scaling-stroke"   >
		<g transform="matrix(0.62 0 0 3.12 -20 0)" id="BhJjzjBC0fCURTxT5X3ui"  >
<path style="stroke: rgb(100,243,145); stroke-width: 0; stroke-dasharray: none; stroke-linecap: butt; stroke-dashoffset: 0; stroke-linejoin: miter; stroke-miterlimit: 4; fill: rgb(0,0,0); fill-rule: nonzero; opacity: 1;" vector-effect="non-scaling-stroke"  transform=" translate(0, 0)" d="M -16.02177 -16.02177 L 16.02177 -16.02177 L 16.02177 16.02177 L -16.02177 16.02177 z" stroke-linecap="round" />
</g>
		<g transform="matrix(1.87 0 0 0.62 0 -40)" id="gs7lwtFcfzmva-dActIOu"  >
<path style="stroke: rgb(100,243,145); stroke-width: 0; stroke-dasharray: none; stroke-linecap: butt; stroke-dashoffset: 0; stroke-linejoin: miter; stroke-miterlimit: 4; fill: rgb(0,0,0); fill-rule: nonzero; opacity: 1;" vector-effect="non-scaling-stroke"  transform=" translate(0, 0)" d="M -16.02177 -16.02177 L 16.02177 -16.02177 L 16.02177 16.02177 L -16.02177 16.02177 z" stroke-linecap="round" />
</g>
		<g transform="matrix(1.87 0 0 0.62 0 40)" id="uVa_dYiiV1_8WHgDhJfvi"  >
<path style="stroke: rgb(100,243,145); stroke-width: 0; stroke-dasharray: none; stroke-linecap: butt; stroke-dashoffset: 0; stroke-linejoin: miter; stroke-miterlimit: 4; fill: rgb(0,0,0); fill-rule: nonzero; opacity: 1;" vector-effect="non-scaling-stroke"  transform=" translate(0, 0)" d="M -16.02177 -16.02177 L 16.02177 -16.02177 L 16.02177 16.02177 L -16.02177 16.02177 z" stroke-linecap="round" />
</g>
		<g transform="matrix(1.87 0 0 0.62 0 0)" id="UOtNWmRgaIH6ssUkGvsMS"  >
<path style="stroke: rgb(100,243,145); stroke-width: 0; stroke-dasharray: none; stroke-linecap: butt; stroke-dashoffset: 0; stroke-linejoin: miter; stroke-miterlimit: 4; fill: rgb(0,0,0); fill-rule: nonzero; opacity: 1;" vector-effect="non-scaling-stroke"  transform=" translate(0, 0)" d="M -16.02177 -16.02177 L 16.02177 -16.02177 L 16.02177 16.02177 L -16.02177 16.02177 z" stroke-linecap="round" />
</g>
</g>
</g>
		<g transform="matrix(0.75 0 0 0.75 75 20)" id="eI5AFSZu22bu6K6cVsvo2"  >
<path style="stroke: none; stroke-width: 0; stroke-dasharray: none; stroke-linecap: butt; stroke-dashoffset: 0; stroke-linejoin: miter; stroke-miterlimit: 4; fill: rgb(155,187,117); fill-rule: nonzero; opacity: 1;" vector-effect="non-scaling-stroke"  transform=" translate(0, 0)" d="M 20 0 L 40 40 L 0 40 L -40 40 L -20 0 L 0 -40 z" stroke-linecap="round" />
</g>
		<g transform="matrix(0.75 0 0 -0.75 15 -20)" id="Fv6XeD2118UDeQ_DASX0Z"  >
<path style="stroke: none; stroke-width: 0; stroke-dasharray: none; stroke-linecap: butt; stroke-dashoffset: 0; stroke-linejoin: miter; stroke-miterlimit: 4; fill: rgb(121,158,211); fill-rule: nonzero; opacity: 1;" vector-effect="non-scaling-stroke"  transform=" translate(0, 0)" d="M 20 0 L 40 40 L 0 40 L -40 40 L -20 0 L 0 -40 z" stroke-linecap="round" />
</g>
</g>
</g>
</svg>