%TF.GenerationSoftware,KiCad,Pcbnew,(7.0.0)*%
%TF.CreationDate,2023-03-06T19:44:32-05:00*%
%TF.ProjectId,Module Board,4d6f6475-6c65-4204-926f-6172642e6b69,rev?*%
%TF.SameCoordinates,Original*%
%TF.FileFunction,Soldermask,Top*%
%TF.FilePolarity,Negative*%
%FSLAX46Y46*%
G04 Gerber Fmt 4.6, Leading zero omitted, Abs format (unit mm)*
G04 Created by KiCad (PCBNEW (7.0.0)) date 2023-03-06 19:44:32*
%MOMM*%
%LPD*%
G01*
G04 APERTURE LIST*
G04 Aperture macros list*
%AMRoundRect*
0 Rectangle with rounded corners*
0 $1 Rounding radius*
0 $2 $3 $4 $5 $6 $7 $8 $9 X,Y pos of 4 corners*
0 Add a 4 corners polygon primitive as box body*
4,1,4,$2,$3,$4,$5,$6,$7,$8,$9,$2,$3,0*
0 Add four circle primitives for the rounded corners*
1,1,$1+$1,$2,$3*
1,1,$1+$1,$4,$5*
1,1,$1+$1,$6,$7*
1,1,$1+$1,$8,$9*
0 Add four rect primitives between the rounded corners*
20,1,$1+$1,$2,$3,$4,$5,0*
20,1,$1+$1,$4,$5,$6,$7,0*
20,1,$1+$1,$6,$7,$8,$9,0*
20,1,$1+$1,$8,$9,$2,$3,0*%
G04 Aperture macros list end*
%ADD10C,2.600000*%
%ADD11RoundRect,0.250000X-0.625000X0.400000X-0.625000X-0.400000X0.625000X-0.400000X0.625000X0.400000X0*%
%ADD12C,1.600000*%
%ADD13R,1.700000X1.700000*%
%ADD14C,1.700000*%
%ADD15C,3.800000*%
%ADD16RoundRect,0.250001X-0.462499X-0.624999X0.462499X-0.624999X0.462499X0.624999X-0.462499X0.624999X0*%
G04 APERTURE END LIST*
D10*
%TO.C,*%
X113411000Y-63246000D03*
%TD*%
D11*
%TO.C,R1*%
X134620000Y-61696000D03*
X134620000Y-64796000D03*
%TD*%
%TO.C,R2*%
X137160000Y-61670000D03*
X137160000Y-64770000D03*
%TD*%
D12*
%TO.C,J1*%
X129791495Y-57531000D03*
X127291500Y-57531000D03*
D13*
X127291499Y-64711000D03*
D14*
X129791500Y-64711001D03*
%TD*%
D10*
%TO.C,REF\u002A\u002A*%
X113411000Y-57785000D03*
D15*
X113411000Y-57785000D03*
%TD*%
D12*
%TO.C,J3*%
X112707999Y-77978005D03*
X112707999Y-80478000D03*
D13*
X122387999Y-80477999D03*
D14*
X122388000Y-77978000D03*
X119888000Y-80478000D03*
X119888000Y-77978000D03*
%TD*%
D10*
%TO.C,REF\u002A\u002A*%
X113411000Y-63246000D03*
D15*
X113411000Y-63246000D03*
%TD*%
D12*
%TO.C,J2*%
X121285000Y-57531000D03*
X118785005Y-57531000D03*
D13*
X118785004Y-64711000D03*
D14*
X121285005Y-64711001D03*
%TD*%
D12*
%TO.C,J5*%
X136974001Y-76962000D03*
X136974001Y-69462015D03*
D13*
X127293999Y-69462014D03*
D14*
X127294000Y-71962015D03*
X127294000Y-74462015D03*
X127294000Y-76962015D03*
X129794000Y-69462015D03*
X129794000Y-71962015D03*
X129794000Y-74462015D03*
X129794000Y-76962015D03*
%TD*%
D12*
%TO.C,J4*%
X112711998Y-69460005D03*
X112711998Y-71960000D03*
D13*
X119891998Y-71959999D03*
D14*
X119891999Y-69460000D03*
%TD*%
D16*
%TO.C,F1*%
X122174000Y-71970000D03*
X125149000Y-71970000D03*
%TD*%
D10*
%TO.C,REF\u002A\u002A*%
X136144000Y-57785000D03*
D15*
X136144000Y-57785000D03*
%TD*%
D10*
%TO.C,REF\u002A\u002A*%
X136144000Y-81915000D03*
D15*
X136144000Y-81915000D03*
%TD*%
M02*
