M48
; DRILL file {KiCad (7.0.0)} date Mon Mar  6 19:44:35 2023
; FORMAT={-:-/ absolute / inch / decimal}
; #@! TF.CreationDate,2023-03-06T19:44:35-05:00
; #@! TF.GenerationSoftware,Kicad,Pcbnew,(7.0.0)
; #@! TF.FileFunction,MixedPlating,1,2
FMAT,2
INCH
; #@! TA.AperFunction,Plated,PTH,ComponentDrill
T1C0.0472
; #@! TA.AperFunction,Plated,PTH,ComponentDrill
T2C0.0866
; #@! TA.AperFunction,NonPlated,NPTH,ComponentDrill
T3C0.0630
%
G90
G05
T1
X4.6766Y-2.5477
X4.72Y-3.07
X4.72Y-3.1684
X4.7202Y-2.7346
X4.7202Y-2.8331
X4.775Y-2.5477
X4.8184Y-3.07
X4.8184Y-3.1684
X5.0115Y-2.5477
X5.0116Y-2.7347
X5.0116Y-2.8332
X5.0116Y-2.9316
X5.0116Y-3.03
X5.1099Y-2.5477
X5.11Y-2.7347
X5.11Y-2.8332
X5.11Y-2.9316
X5.11Y-3.03
T2
X4.465Y-2.275
X4.465Y-2.49
X4.465Y-2.49
X5.36Y-2.275
X5.36Y-3.225
T3
X4.4373Y-3.07
X4.4373Y-3.1684
X4.4375Y-2.7346
X4.4375Y-2.8331
X4.6766Y-2.265
X4.775Y-2.265
X5.0115Y-2.265
X5.1099Y-2.265
X5.3927Y-2.7347
X5.3927Y-3.03
T0
M30
